G04 #@! TF.FileFunction,Soldermask,Bot*
%FSLAX46Y46*%
G04 Gerber Fmt 4.6, Leading zero omitted, Abs format (unit mm)*
G04 Created by KiCad (PCBNEW 4.0.0-rc1-stable) date 19/11/2015 21:53:00*
%MOMM*%
G01*
G04 APERTURE LIST*
%ADD10C,0.100000*%
%ADD11R,1.150000X1.600000*%
%ADD12R,2.127200X2.432000*%
%ADD13O,2.127200X2.432000*%
%ADD14R,1.598880X1.598880*%
%ADD15C,3.400000*%
%ADD16R,2.432000X2.127200*%
%ADD17O,2.432000X2.127200*%
%ADD18R,1.600000X1.300000*%
%ADD19R,1.300000X1.600000*%
%ADD20R,2.500000X2.500000*%
%ADD21O,2.940000X2.432000*%
%ADD22R,2.432000X2.432000*%
%ADD23O,2.432000X2.432000*%
G04 APERTURE END LIST*
D10*
D11*
X126500000Y-63450000D03*
X126500000Y-61550000D03*
D12*
X198000000Y-77000000D03*
D13*
X200540000Y-77000000D03*
X203080000Y-77000000D03*
D14*
X131000000Y-63950980D03*
X131000000Y-66049020D03*
X133000000Y-63950980D03*
X133000000Y-66049020D03*
X135000000Y-63950980D03*
X135000000Y-66049020D03*
X138000000Y-63950980D03*
X138000000Y-66049020D03*
X140000000Y-63950980D03*
X140000000Y-66049020D03*
X142000000Y-63950980D03*
X142000000Y-66049020D03*
D12*
X160500000Y-57500000D03*
D13*
X163040000Y-57500000D03*
X165580000Y-57500000D03*
X168120000Y-57500000D03*
X170660000Y-57500000D03*
D15*
X161500000Y-74000000D03*
D16*
X144500000Y-88000000D03*
D17*
X144500000Y-90540000D03*
X144500000Y-93080000D03*
D16*
X148000000Y-88000000D03*
D17*
X148000000Y-90540000D03*
X148000000Y-93080000D03*
D16*
X151500000Y-88000000D03*
D17*
X151500000Y-90540000D03*
X151500000Y-93080000D03*
D16*
X155000000Y-88000000D03*
D17*
X155000000Y-90540000D03*
X155000000Y-93080000D03*
D15*
X127000000Y-57000000D03*
X203000000Y-57000000D03*
X203000000Y-93000000D03*
X127000000Y-93000000D03*
D12*
X198000000Y-81000000D03*
D13*
X200540000Y-81000000D03*
X203080000Y-81000000D03*
D18*
X163100000Y-62500000D03*
X160900000Y-62500000D03*
D19*
X193000000Y-67900000D03*
X193000000Y-70100000D03*
X131000000Y-59900000D03*
X131000000Y-62100000D03*
X133000000Y-59900000D03*
X133000000Y-62100000D03*
D18*
X190100000Y-81000000D03*
X187900000Y-81000000D03*
X187900000Y-83000000D03*
X190100000Y-83000000D03*
D19*
X132250000Y-73650000D03*
X132250000Y-75850000D03*
X128500000Y-61400000D03*
X128500000Y-63600000D03*
X195000000Y-70100000D03*
X195000000Y-67900000D03*
X135000000Y-59900000D03*
X135000000Y-62100000D03*
X138000000Y-59900000D03*
X138000000Y-62100000D03*
X140000000Y-59900000D03*
X140000000Y-62100000D03*
X142000000Y-59900000D03*
X142000000Y-62100000D03*
D16*
X187000000Y-62000000D03*
D17*
X187000000Y-59460000D03*
X187000000Y-56920000D03*
D16*
X184000000Y-62000000D03*
D17*
X184000000Y-59460000D03*
X184000000Y-56920000D03*
D16*
X181000000Y-62000000D03*
D17*
X181000000Y-59460000D03*
X181000000Y-56920000D03*
D16*
X178000000Y-62000000D03*
D17*
X178000000Y-59460000D03*
X178000000Y-56920000D03*
D16*
X175000000Y-62000000D03*
D17*
X175000000Y-59460000D03*
X175000000Y-56920000D03*
D16*
X190000000Y-62000000D03*
D17*
X190000000Y-59460000D03*
X190000000Y-56920000D03*
D16*
X177000000Y-88000000D03*
D17*
X177000000Y-90540000D03*
X177000000Y-93080000D03*
D16*
X180000000Y-88000000D03*
D17*
X180000000Y-90540000D03*
X180000000Y-93080000D03*
D16*
X183000000Y-88000000D03*
D17*
X183000000Y-90540000D03*
X183000000Y-93080000D03*
D16*
X186000000Y-88000000D03*
D17*
X186000000Y-90540000D03*
X186000000Y-93080000D03*
D16*
X165000000Y-88000000D03*
D17*
X165000000Y-90540000D03*
X165000000Y-93080000D03*
D16*
X168000000Y-88000000D03*
D17*
X168000000Y-90540000D03*
X168000000Y-93080000D03*
D16*
X171000000Y-88000000D03*
D17*
X171000000Y-90540000D03*
X171000000Y-93080000D03*
D16*
X174000000Y-88000000D03*
D17*
X174000000Y-90540000D03*
X174000000Y-93080000D03*
D16*
X190000000Y-88000000D03*
D17*
X190000000Y-90540000D03*
X190000000Y-93080000D03*
D12*
X194000000Y-62000000D03*
D13*
X196540000Y-62000000D03*
X199080000Y-62000000D03*
D12*
X194000000Y-88000000D03*
D13*
X196540000Y-88000000D03*
X199080000Y-88000000D03*
D16*
X127000000Y-68000000D03*
D17*
X127000000Y-70540000D03*
X127000000Y-73080000D03*
X127000000Y-75620000D03*
X127000000Y-78160000D03*
X127000000Y-80700000D03*
X127000000Y-83240000D03*
D12*
X142000000Y-57000000D03*
D13*
X139460000Y-57000000D03*
X136920000Y-57000000D03*
X134380000Y-57000000D03*
X131840000Y-57000000D03*
D18*
X163100000Y-67750000D03*
X160900000Y-67750000D03*
X163100000Y-66000000D03*
X160900000Y-66000000D03*
X163100000Y-64250000D03*
X160900000Y-64250000D03*
X163100000Y-60750000D03*
X160900000Y-60750000D03*
D20*
X145600000Y-56750000D03*
X156400000Y-56750000D03*
X145600000Y-59550000D03*
X156400000Y-59550000D03*
X156400000Y-63250000D03*
X145600000Y-63250000D03*
D21*
X185000000Y-73500000D03*
X185000000Y-70960000D03*
X185000000Y-76040000D03*
X175000000Y-73500000D03*
X175000000Y-70960000D03*
X175000000Y-76040000D03*
D22*
X200000000Y-73000000D03*
D23*
X197460000Y-73000000D03*
D16*
X138500000Y-85500000D03*
D17*
X138500000Y-88040000D03*
X138500000Y-90580000D03*
X138500000Y-93120000D03*
D16*
X135000000Y-85500000D03*
D17*
X135000000Y-88040000D03*
X135000000Y-90580000D03*
X135000000Y-93120000D03*
D16*
X131500000Y-85500000D03*
D17*
X131500000Y-88040000D03*
X131500000Y-90580000D03*
X131500000Y-93120000D03*
M02*
