G04 #@! TF.FileFunction,Copper,L1,Top,Signal*
%FSLAX46Y46*%
G04 Gerber Fmt 4.6, Leading zero omitted, Abs format (unit mm)*
G04 Created by KiCad (PCBNEW 4.0.0-rc1-stable) date 19/11/2015 21:53:00*
%MOMM*%
G01*
G04 APERTURE LIST*
%ADD10C,0.100000*%
%ADD11C,0.300000*%
%ADD12R,0.750000X1.200000*%
%ADD13R,1.250000X1.500000*%
%ADD14R,1.200000X0.750000*%
%ADD15R,1.727200X2.032000*%
%ADD16O,1.727200X2.032000*%
%ADD17R,1.143000X0.508000*%
%ADD18C,3.000000*%
%ADD19R,2.032000X1.727200*%
%ADD20O,2.032000X1.727200*%
%ADD21R,0.900000X1.200000*%
%ADD22R,1.300000X0.250000*%
%ADD23R,0.250000X1.300000*%
%ADD24R,2.100000X2.100000*%
%ADD25O,2.540000X2.032000*%
%ADD26R,2.032000X2.032000*%
%ADD27O,2.032000X2.032000*%
%ADD28C,0.800000*%
%ADD29C,1.000000*%
%ADD30C,0.250000*%
%ADD31C,1.600000*%
G04 APERTURE END LIST*
D10*
D11*
X160428572Y-71678571D02*
X159571429Y-71678571D01*
X160000001Y-71678571D02*
X160000001Y-70178571D01*
X159857144Y-70392857D01*
X159714286Y-70535714D01*
X159571429Y-70607143D01*
D12*
X152500000Y-58450000D03*
X152500000Y-56550000D03*
D13*
X177750000Y-71000000D03*
X177750000Y-73500000D03*
D14*
X157450000Y-85000000D03*
X155550000Y-85000000D03*
X156950000Y-74000000D03*
X155050000Y-74000000D03*
D12*
X139500000Y-71950000D03*
X139500000Y-70050000D03*
D14*
X155050000Y-71000000D03*
X156950000Y-71000000D03*
X144950000Y-85500000D03*
X143050000Y-85500000D03*
X155550000Y-83500000D03*
X157450000Y-83500000D03*
X155050000Y-72500000D03*
X156950000Y-72500000D03*
X144050000Y-66250000D03*
X145950000Y-66250000D03*
X138200000Y-79250000D03*
X136300000Y-79250000D03*
D15*
X198000000Y-77000000D03*
D16*
X200540000Y-77000000D03*
X203080000Y-77000000D03*
D17*
X136175000Y-69095000D03*
X136175000Y-70365000D03*
X136175000Y-71635000D03*
X136175000Y-72905000D03*
X129825000Y-72905000D03*
X129825000Y-71635000D03*
X129825000Y-70365000D03*
X129825000Y-69095000D03*
D15*
X160500000Y-57500000D03*
D16*
X163040000Y-57500000D03*
X165580000Y-57500000D03*
X168120000Y-57500000D03*
X170660000Y-57500000D03*
D18*
X161500000Y-74000000D03*
D19*
X144500000Y-88000000D03*
D20*
X144500000Y-90540000D03*
X144500000Y-93080000D03*
D19*
X148000000Y-88000000D03*
D20*
X148000000Y-90540000D03*
X148000000Y-93080000D03*
D19*
X151500000Y-88000000D03*
D20*
X151500000Y-90540000D03*
X151500000Y-93080000D03*
D19*
X155000000Y-88000000D03*
D20*
X155000000Y-90540000D03*
X155000000Y-93080000D03*
D18*
X127000000Y-57000000D03*
X203000000Y-57000000D03*
X203000000Y-93000000D03*
X127000000Y-93000000D03*
D15*
X198000000Y-81000000D03*
D16*
X200540000Y-81000000D03*
X203080000Y-81000000D03*
D21*
X143000000Y-59900000D03*
X143000000Y-62100000D03*
D19*
X187000000Y-62000000D03*
D20*
X187000000Y-59460000D03*
X187000000Y-56920000D03*
D19*
X184000000Y-62000000D03*
D20*
X184000000Y-59460000D03*
X184000000Y-56920000D03*
D19*
X181000000Y-62000000D03*
D20*
X181000000Y-59460000D03*
X181000000Y-56920000D03*
D19*
X178000000Y-62000000D03*
D20*
X178000000Y-59460000D03*
X178000000Y-56920000D03*
D19*
X175000000Y-62000000D03*
D20*
X175000000Y-59460000D03*
X175000000Y-56920000D03*
D19*
X190000000Y-62000000D03*
D20*
X190000000Y-59460000D03*
X190000000Y-56920000D03*
D19*
X177000000Y-88000000D03*
D20*
X177000000Y-90540000D03*
X177000000Y-93080000D03*
D19*
X180000000Y-88000000D03*
D20*
X180000000Y-90540000D03*
X180000000Y-93080000D03*
D19*
X183000000Y-88000000D03*
D20*
X183000000Y-90540000D03*
X183000000Y-93080000D03*
D19*
X186000000Y-88000000D03*
D20*
X186000000Y-90540000D03*
X186000000Y-93080000D03*
D19*
X165000000Y-88000000D03*
D20*
X165000000Y-90540000D03*
X165000000Y-93080000D03*
D19*
X168000000Y-88000000D03*
D20*
X168000000Y-90540000D03*
X168000000Y-93080000D03*
D19*
X171000000Y-88000000D03*
D20*
X171000000Y-90540000D03*
X171000000Y-93080000D03*
D19*
X174000000Y-88000000D03*
D20*
X174000000Y-90540000D03*
X174000000Y-93080000D03*
D19*
X190000000Y-88000000D03*
D20*
X190000000Y-90540000D03*
X190000000Y-93080000D03*
D15*
X194000000Y-62000000D03*
D16*
X196540000Y-62000000D03*
X199080000Y-62000000D03*
D15*
X194000000Y-88000000D03*
D16*
X196540000Y-88000000D03*
X199080000Y-88000000D03*
D19*
X127000000Y-68000000D03*
D20*
X127000000Y-70540000D03*
X127000000Y-73080000D03*
X127000000Y-75620000D03*
X127000000Y-78160000D03*
X127000000Y-80700000D03*
X127000000Y-83240000D03*
D15*
X142000000Y-57000000D03*
D16*
X139460000Y-57000000D03*
X136920000Y-57000000D03*
X134380000Y-57000000D03*
X131840000Y-57000000D03*
D22*
X141300000Y-73250000D03*
X141300000Y-73750000D03*
X141300000Y-74250000D03*
X141300000Y-74750000D03*
X141300000Y-75250000D03*
X141300000Y-75750000D03*
X141300000Y-76250000D03*
X141300000Y-76750000D03*
X141300000Y-77250000D03*
X141300000Y-77750000D03*
X141300000Y-78250000D03*
X141300000Y-78750000D03*
X141300000Y-79250000D03*
X141300000Y-79750000D03*
X141300000Y-80250000D03*
X141300000Y-80750000D03*
D23*
X143250000Y-82700000D03*
X143750000Y-82700000D03*
X144250000Y-82700000D03*
X144750000Y-82700000D03*
X145250000Y-82700000D03*
X145750000Y-82700000D03*
X146250000Y-82700000D03*
X146750000Y-82700000D03*
X147250000Y-82700000D03*
X147750000Y-82700000D03*
X148250000Y-82700000D03*
X148750000Y-82700000D03*
X149250000Y-82700000D03*
X149750000Y-82700000D03*
X150250000Y-82700000D03*
X150750000Y-82700000D03*
D22*
X152700000Y-80750000D03*
X152700000Y-80250000D03*
X152700000Y-79750000D03*
X152700000Y-79250000D03*
X152700000Y-78750000D03*
X152700000Y-78250000D03*
X152700000Y-77750000D03*
X152700000Y-77250000D03*
X152700000Y-76750000D03*
X152700000Y-76250000D03*
X152700000Y-75750000D03*
X152700000Y-75250000D03*
X152700000Y-74750000D03*
X152700000Y-74250000D03*
X152700000Y-73750000D03*
X152700000Y-73250000D03*
D23*
X150750000Y-71300000D03*
X150250000Y-71300000D03*
X149750000Y-71300000D03*
X149250000Y-71300000D03*
X148750000Y-71300000D03*
X148250000Y-71300000D03*
X147750000Y-71300000D03*
X147250000Y-71300000D03*
X146750000Y-71300000D03*
X146250000Y-71300000D03*
X145750000Y-71300000D03*
X145250000Y-71300000D03*
X144750000Y-71300000D03*
X144250000Y-71300000D03*
X143750000Y-71300000D03*
X143250000Y-71300000D03*
D12*
X151000000Y-58450000D03*
X151000000Y-56550000D03*
X149500000Y-58450000D03*
X149500000Y-56550000D03*
X148000000Y-58450000D03*
X148000000Y-56550000D03*
X154000000Y-58450000D03*
X154000000Y-56550000D03*
D24*
X145600000Y-56750000D03*
X156400000Y-56750000D03*
X145600000Y-59550000D03*
X156400000Y-59550000D03*
X156400000Y-63250000D03*
X145600000Y-63250000D03*
D25*
X185000000Y-73500000D03*
X185000000Y-70960000D03*
X185000000Y-76040000D03*
X175000000Y-73500000D03*
X175000000Y-70960000D03*
X175000000Y-76040000D03*
D26*
X200000000Y-73000000D03*
D27*
X197460000Y-73000000D03*
D19*
X138500000Y-85500000D03*
D20*
X138500000Y-88040000D03*
X138500000Y-90580000D03*
X138500000Y-93120000D03*
D19*
X135000000Y-85500000D03*
D20*
X135000000Y-88040000D03*
X135000000Y-90580000D03*
X135000000Y-93120000D03*
D19*
X131500000Y-85500000D03*
D20*
X131500000Y-88040000D03*
X131500000Y-90580000D03*
X131500000Y-93120000D03*
D28*
X145750000Y-76000000D03*
X158750000Y-86250000D03*
X131250000Y-75750000D03*
D29*
X180000000Y-73500000D03*
D28*
X134000000Y-71000000D03*
X147250000Y-66250000D03*
X131500000Y-69000000D03*
X135000000Y-79250000D03*
X140500000Y-70000000D03*
X142000000Y-85500000D03*
X157000000Y-70000000D03*
X126500000Y-60000000D03*
X192000000Y-83000000D03*
X196000000Y-66000000D03*
X155500000Y-82250000D03*
D29*
X180000000Y-71000000D03*
D28*
X133000000Y-70250000D03*
X144000000Y-65000000D03*
X164500000Y-60750000D03*
X134250000Y-80000000D03*
X143500000Y-63750000D03*
X140500000Y-72000000D03*
X146000000Y-85500000D03*
X155000000Y-70000000D03*
X128500000Y-60000000D03*
X136500000Y-60000000D03*
X136250000Y-74500000D03*
X146300000Y-69600000D03*
X147300000Y-69300000D03*
X134750000Y-71750000D03*
X144250000Y-73500000D03*
X145750000Y-74750000D03*
X135500000Y-76000000D03*
X144250000Y-74750000D03*
X168250000Y-81000000D03*
X143750000Y-81250000D03*
X166750000Y-81000000D03*
X146250000Y-81250000D03*
X155500000Y-79750000D03*
X164000000Y-79750000D03*
X150000000Y-79250000D03*
X150000000Y-80250000D03*
X134250000Y-69000000D03*
X151000000Y-70000000D03*
X133000000Y-69000000D03*
X153250000Y-71750000D03*
X186250000Y-81000000D03*
X169000000Y-82500000D03*
X136250000Y-82500000D03*
X138250000Y-76250000D03*
X150250000Y-63250000D03*
X141250000Y-71000000D03*
X150250000Y-67750000D03*
X142250000Y-71250000D03*
X159500000Y-64000000D03*
X152750000Y-62250000D03*
X148500000Y-69250000D03*
X138000000Y-67500000D03*
X139750000Y-67500000D03*
X141500000Y-67500000D03*
X170500000Y-65000000D03*
X168000000Y-74000000D03*
X145000000Y-81250000D03*
X133000000Y-80000000D03*
X149750000Y-73000000D03*
X131750000Y-80000000D03*
X148750000Y-73500000D03*
X131750000Y-78750000D03*
X147750000Y-73000000D03*
X148750000Y-79250000D03*
X165750000Y-81750000D03*
X193000000Y-71500000D03*
X147500000Y-81250000D03*
D30*
X145750000Y-76000000D02*
X143250000Y-76000000D01*
X142500000Y-76750000D02*
X141300000Y-76750000D01*
X143250000Y-76000000D02*
X142500000Y-76750000D01*
X152500000Y-58450000D02*
X152500000Y-59350000D01*
X152500000Y-59350000D02*
X156400000Y-63250000D01*
X157450000Y-85000000D02*
X157450000Y-85700000D01*
X158000000Y-86250000D02*
X158750000Y-86250000D01*
X157450000Y-85700000D02*
X158000000Y-86250000D01*
X157450000Y-83500000D02*
X157450000Y-85000000D01*
X156950000Y-72500000D02*
X156950000Y-74000000D01*
D31*
X177750000Y-73500000D02*
X180000000Y-73500000D01*
D30*
X136175000Y-70365000D02*
X135135000Y-70365000D01*
X134500000Y-71000000D02*
X134000000Y-71000000D01*
X135135000Y-70365000D02*
X134500000Y-71000000D01*
X145950000Y-66250000D02*
X147250000Y-66250000D01*
X143750000Y-71300000D02*
X143750000Y-68450000D01*
X143750000Y-68450000D02*
X145950000Y-66250000D01*
X129825000Y-71635000D02*
X129825000Y-72905000D01*
X129825000Y-70365000D02*
X129825000Y-71635000D01*
X129825000Y-69095000D02*
X129825000Y-70365000D01*
X129825000Y-69095000D02*
X131405000Y-69095000D01*
X131405000Y-69095000D02*
X131500000Y-69000000D01*
X136300000Y-79250000D02*
X135000000Y-79250000D01*
X141300000Y-78750000D02*
X139500000Y-78750000D01*
X136300000Y-78450000D02*
X136300000Y-79250000D01*
X136500000Y-78250000D02*
X136300000Y-78450000D01*
X139000000Y-78250000D02*
X136500000Y-78250000D01*
X139500000Y-78750000D02*
X139000000Y-78250000D01*
D31*
X175000000Y-73500000D02*
X177750000Y-73500000D01*
D30*
X139500000Y-70050000D02*
X140450000Y-70050000D01*
X140450000Y-70050000D02*
X140500000Y-70000000D01*
X143050000Y-85500000D02*
X142000000Y-85500000D01*
X143750000Y-82700000D02*
X143750000Y-84250000D01*
X143050000Y-84950000D02*
X143050000Y-85500000D01*
X143750000Y-84250000D02*
X143050000Y-84950000D01*
X156950000Y-71000000D02*
X156950000Y-72500000D01*
X156950000Y-71000000D02*
X156950000Y-70050000D01*
X156950000Y-70050000D02*
X157000000Y-70000000D01*
X148000000Y-56550000D02*
X149500000Y-56550000D01*
X149500000Y-56550000D02*
X151000000Y-56550000D01*
X151000000Y-56550000D02*
X152500000Y-56550000D01*
X152500000Y-56550000D02*
X154000000Y-56550000D01*
X154000000Y-56550000D02*
X154200000Y-56750000D01*
X154200000Y-56750000D02*
X156400000Y-56750000D01*
X155550000Y-83500000D02*
X155550000Y-82300000D01*
X155550000Y-82300000D02*
X155500000Y-82250000D01*
X150750000Y-82700000D02*
X150750000Y-83750000D01*
X154750000Y-83500000D02*
X155550000Y-83500000D01*
X154000000Y-84250000D02*
X154750000Y-83500000D01*
X151250000Y-84250000D02*
X154000000Y-84250000D01*
X150750000Y-83750000D02*
X151250000Y-84250000D01*
X150750000Y-82700000D02*
X150750000Y-83250000D01*
X150750000Y-82700000D02*
X150750000Y-83200000D01*
D31*
X177750000Y-71000000D02*
X180000000Y-71000000D01*
D30*
X136175000Y-69095000D02*
X135405000Y-69095000D01*
X134250000Y-70250000D02*
X133000000Y-70250000D01*
X135405000Y-69095000D02*
X134250000Y-70250000D01*
X144050000Y-66250000D02*
X144050000Y-65050000D01*
X144050000Y-65050000D02*
X144000000Y-65000000D01*
X143250000Y-71300000D02*
X143250000Y-68000000D01*
X144050000Y-67200000D02*
X144050000Y-66250000D01*
X143250000Y-68000000D02*
X144050000Y-67200000D01*
X138200000Y-79250000D02*
X138200000Y-79550000D01*
X138200000Y-79550000D02*
X137500000Y-80250000D01*
X134500000Y-80250000D02*
X134250000Y-80000000D01*
X137500000Y-80250000D02*
X134500000Y-80250000D01*
X141300000Y-79250000D02*
X138200000Y-79250000D01*
X138300000Y-79250000D02*
X138250000Y-79200000D01*
D31*
X175000000Y-70960000D02*
X177710000Y-70960000D01*
X177710000Y-70960000D02*
X177750000Y-71000000D01*
D30*
X143000000Y-62100000D02*
X143000000Y-63250000D01*
X143000000Y-63250000D02*
X143500000Y-63750000D01*
X139500000Y-71950000D02*
X140450000Y-71950000D01*
X140450000Y-71950000D02*
X140500000Y-72000000D01*
X141300000Y-73250000D02*
X139750000Y-73250000D01*
X139500000Y-73000000D02*
X139500000Y-71950000D01*
X139750000Y-73250000D02*
X139500000Y-73000000D01*
X144950000Y-85500000D02*
X146000000Y-85500000D01*
X144250000Y-82700000D02*
X144250000Y-84250000D01*
X144950000Y-84950000D02*
X144950000Y-85500000D01*
X144250000Y-84250000D02*
X144950000Y-84950000D01*
X155050000Y-71000000D02*
X155050000Y-70050000D01*
X155050000Y-70050000D02*
X155000000Y-70000000D01*
X152700000Y-73250000D02*
X154300000Y-73250000D01*
X154300000Y-73250000D02*
X155050000Y-72500000D01*
X155050000Y-72500000D02*
X155050000Y-71000000D01*
X150250000Y-82700000D02*
X150250000Y-84000000D01*
X151000000Y-84750000D02*
X155300000Y-84750000D01*
X150250000Y-84000000D02*
X151000000Y-84750000D01*
X155300000Y-84750000D02*
X155550000Y-85000000D01*
X152700000Y-73750000D02*
X154800000Y-73750000D01*
X154800000Y-73750000D02*
X155050000Y-74000000D01*
X138250000Y-75000000D02*
X137750000Y-74500000D01*
X137750000Y-74500000D02*
X136250000Y-74500000D01*
X141300000Y-76250000D02*
X139500000Y-76250000D01*
X139500000Y-76250000D02*
X138250000Y-75000000D01*
X146750000Y-71300000D02*
X146750000Y-70050000D01*
X146750000Y-70050000D02*
X146300000Y-69600000D01*
X147250000Y-71300000D02*
X147250000Y-69350000D01*
X147250000Y-69350000D02*
X147300000Y-69300000D01*
X144750000Y-71300000D02*
X144750000Y-73000000D01*
X134865000Y-71635000D02*
X136175000Y-71635000D01*
X134750000Y-71750000D02*
X134865000Y-71635000D01*
X144750000Y-73000000D02*
X144250000Y-73500000D01*
X144750000Y-71300000D02*
X144750000Y-69200002D01*
X147750000Y-68000000D02*
X149000000Y-66750000D01*
X145950002Y-68000000D02*
X147750000Y-68000000D01*
X144750000Y-69200002D02*
X145950002Y-68000000D01*
X158250000Y-59750000D02*
X160500000Y-57500000D01*
X158250000Y-64500000D02*
X158250000Y-59750000D01*
X157750000Y-65000000D02*
X158250000Y-64500000D01*
X150750000Y-65000000D02*
X157750000Y-65000000D01*
X149000000Y-66750000D02*
X150750000Y-65000000D01*
X145750000Y-72750000D02*
X145750000Y-74750000D01*
X145750000Y-71300000D02*
X145750000Y-72750000D01*
X135000000Y-74500000D02*
X135000000Y-73500000D01*
X135595000Y-72905000D02*
X136175000Y-72905000D01*
X135000000Y-73500000D02*
X135595000Y-72905000D01*
X135500000Y-76000000D02*
X135000000Y-75500000D01*
X135000000Y-75500000D02*
X135000000Y-74500000D01*
X145250000Y-69500000D02*
X145250000Y-69750000D01*
X145250000Y-69750000D02*
X145750000Y-70250000D01*
X145750000Y-71300000D02*
X145750000Y-70250000D01*
X146000000Y-68750000D02*
X146250000Y-68500000D01*
X145250000Y-69500000D02*
X146000000Y-68750000D01*
X146250000Y-68500000D02*
X148000000Y-68500000D01*
X148000000Y-68500000D02*
X148250000Y-68250000D01*
X148000000Y-68500000D02*
X148250000Y-68250000D01*
X148250000Y-68250000D02*
X149250000Y-67250000D01*
X146250000Y-68500000D02*
X148000000Y-68500000D01*
X163040000Y-58710000D02*
X163040000Y-57500000D01*
X162500000Y-59250000D02*
X163040000Y-58710000D01*
X159500000Y-59250000D02*
X162500000Y-59250000D01*
X158750000Y-60000000D02*
X159500000Y-59250000D01*
X158750000Y-64750000D02*
X158750000Y-60000000D01*
X158000000Y-65500000D02*
X158750000Y-64750000D01*
X151000000Y-65500000D02*
X158000000Y-65500000D01*
X149250000Y-67250000D02*
X151000000Y-65500000D01*
X145250000Y-73750000D02*
X144250000Y-74750000D01*
X145250000Y-71300000D02*
X145250000Y-73750000D01*
X168250000Y-81000000D02*
X168250000Y-77250000D01*
X168250000Y-77250000D02*
X171750000Y-73750000D01*
X171750000Y-73750000D02*
X171750000Y-68000000D01*
X171750000Y-68000000D02*
X172750000Y-67000000D01*
X172750000Y-67000000D02*
X185250000Y-67000000D01*
X185250000Y-67000000D02*
X187000000Y-65250000D01*
X187000000Y-65250000D02*
X187000000Y-62000000D01*
X143250000Y-80750000D02*
X141300000Y-80750000D01*
X143750000Y-81250000D02*
X143250000Y-80750000D01*
X166750000Y-81000000D02*
X166750000Y-80750000D01*
X184000000Y-65250000D02*
X184000000Y-62000000D01*
X182750000Y-66500000D02*
X184000000Y-65250000D01*
X172500000Y-66500000D02*
X182750000Y-66500000D01*
X171250000Y-67750000D02*
X172500000Y-66500000D01*
X171250000Y-73549998D02*
X171250000Y-67750000D01*
X167750000Y-77049998D02*
X171250000Y-73549998D01*
X167750000Y-79750000D02*
X167750000Y-77049998D01*
X166750000Y-80750000D02*
X167750000Y-79750000D01*
X145750000Y-82700000D02*
X145750000Y-81750000D01*
X145750000Y-81750000D02*
X146250000Y-81250000D01*
X146250000Y-72250000D02*
X146250000Y-73000000D01*
X150750000Y-73000000D02*
X151250000Y-72500000D01*
X150750000Y-74000000D02*
X150750000Y-73000000D01*
X150500000Y-74250000D02*
X150750000Y-74000000D01*
X147500000Y-74250000D02*
X150500000Y-74250000D01*
X146250000Y-73000000D02*
X147500000Y-74250000D01*
X167125000Y-76875000D02*
X167125000Y-79375000D01*
X167125000Y-76875000D02*
X170799998Y-73200002D01*
X170799998Y-73200002D02*
X170799998Y-67336400D01*
X170799998Y-67336400D02*
X172186396Y-65950002D01*
X172186396Y-65950002D02*
X180299998Y-65950002D01*
X180299998Y-65950002D02*
X181000000Y-65250000D01*
X181000000Y-65250000D02*
X181000000Y-62000000D01*
X151250000Y-72500000D02*
X154500000Y-69250000D01*
X154500000Y-69250000D02*
X157500000Y-69250000D01*
X157500000Y-69250000D02*
X158250000Y-70000000D01*
X158250000Y-70000000D02*
X158250000Y-75250000D01*
X158250000Y-75250000D02*
X161750000Y-78750000D01*
X163750000Y-80750000D02*
X164000000Y-81000000D01*
X161750000Y-78750000D02*
X163750000Y-80750000D01*
X166250000Y-80250000D02*
X165500000Y-81000000D01*
X165500000Y-81000000D02*
X164000000Y-81000000D01*
X167125000Y-79375000D02*
X166250000Y-80250000D01*
X146250000Y-71300000D02*
X146250000Y-72250000D01*
X146250000Y-72250000D02*
X146250000Y-72500000D01*
X146250000Y-71300000D02*
X146250000Y-72500000D01*
X165000000Y-80500000D02*
X164250000Y-80500000D01*
X164000000Y-80250000D02*
X164000000Y-79750000D01*
X164250000Y-80500000D02*
X164000000Y-80250000D01*
X166625000Y-76625000D02*
X166625000Y-79125000D01*
X166625000Y-79125000D02*
X165750000Y-80000000D01*
X165250000Y-80500000D02*
X165000000Y-80500000D01*
X165750000Y-80000000D02*
X165250000Y-80500000D01*
X178000000Y-62000000D02*
X178000000Y-65250000D01*
X177750000Y-65500000D02*
X176250000Y-65500000D01*
X178000000Y-65250000D02*
X177750000Y-65500000D01*
X152700000Y-79750000D02*
X155500000Y-79750000D01*
X166625000Y-76625000D02*
X167500000Y-75750000D01*
X170250000Y-73000000D02*
X169750000Y-73500000D01*
X170250000Y-67250000D02*
X170250000Y-73000000D01*
X172000000Y-65500000D02*
X170250000Y-67250000D01*
X176250000Y-65500000D02*
X172000000Y-65500000D01*
X167500000Y-75750000D02*
X169750000Y-73500000D01*
X177750000Y-62250000D02*
X178000000Y-62000000D01*
X150250000Y-79250000D02*
X151000000Y-80000000D01*
X151250000Y-80250000D02*
X151000000Y-80000000D01*
X152700000Y-80250000D02*
X151250000Y-80250000D01*
X150000000Y-79250000D02*
X150250000Y-79250000D01*
X141300000Y-77750000D02*
X140000000Y-77750000D01*
X131170000Y-77250000D02*
X127000000Y-73080000D01*
X139500000Y-77250000D02*
X131170000Y-77250000D01*
X140000000Y-77750000D02*
X139500000Y-77250000D01*
X141300000Y-78250000D02*
X139750000Y-78250000D01*
X129130000Y-77750000D02*
X127000000Y-75620000D01*
X139250000Y-77750000D02*
X129130000Y-77750000D01*
X139750000Y-78250000D02*
X139250000Y-77750000D01*
X152700000Y-80750000D02*
X151000000Y-80750000D01*
X150500000Y-80250000D02*
X150000000Y-80250000D01*
X151000000Y-80750000D02*
X150500000Y-80250000D01*
X150750000Y-71300000D02*
X150750000Y-70250000D01*
X139460000Y-63790000D02*
X139460000Y-57000000D01*
X134250000Y-69000000D02*
X139460000Y-63790000D01*
X150750000Y-70250000D02*
X151000000Y-70000000D01*
X151250000Y-73500000D02*
X151250000Y-73250000D01*
X151250000Y-73250000D02*
X152000000Y-72500000D01*
X153250000Y-71750000D02*
X153250000Y-72000000D01*
X133000000Y-69000000D02*
X134380000Y-67620000D01*
X134380000Y-67620000D02*
X134380000Y-57000000D01*
X153250000Y-72000000D02*
X152750000Y-72500000D01*
X152750000Y-72500000D02*
X152000000Y-72500000D01*
X152700000Y-74250000D02*
X151500000Y-74250000D01*
X151250000Y-74000000D02*
X151250000Y-73500000D01*
X151500000Y-74250000D02*
X151250000Y-74000000D01*
X134380000Y-57000000D02*
X134380000Y-57630000D01*
X152700000Y-76750000D02*
X156750000Y-76750000D01*
X173750000Y-84750000D02*
X177000000Y-88000000D01*
X164750000Y-84750000D02*
X173750000Y-84750000D01*
X156750000Y-76750000D02*
X164750000Y-84750000D01*
X152700000Y-76250000D02*
X157000000Y-76250000D01*
X176250000Y-84250000D02*
X180000000Y-88000000D01*
X165000000Y-84250000D02*
X176250000Y-84250000D01*
X157000000Y-76250000D02*
X165000000Y-84250000D01*
X152700000Y-75750000D02*
X157250000Y-75750000D01*
X178750000Y-83750000D02*
X183000000Y-88000000D01*
X165250000Y-83750000D02*
X178750000Y-83750000D01*
X157250000Y-75750000D02*
X165250000Y-83750000D01*
X152700000Y-75250000D02*
X157500000Y-75250000D01*
X181250000Y-83250000D02*
X186000000Y-88000000D01*
X165500000Y-83250000D02*
X181250000Y-83250000D01*
X157500000Y-75250000D02*
X165500000Y-83250000D01*
X152700000Y-78750000D02*
X155750000Y-78750000D01*
X155750000Y-78750000D02*
X165000000Y-88000000D01*
X152700000Y-78250000D02*
X156000000Y-78250000D01*
X166250000Y-86250000D02*
X168000000Y-88000000D01*
X164000000Y-86250000D02*
X166250000Y-86250000D01*
X156000000Y-78250000D02*
X164000000Y-86250000D01*
X152700000Y-77750000D02*
X156250000Y-77750000D01*
X168750000Y-85750000D02*
X171000000Y-88000000D01*
X164250000Y-85750000D02*
X168750000Y-85750000D01*
X156250000Y-77750000D02*
X164250000Y-85750000D01*
X152700000Y-77250000D02*
X156500000Y-77250000D01*
X171250000Y-85250000D02*
X174000000Y-88000000D01*
X164500000Y-85250000D02*
X171250000Y-85250000D01*
X156500000Y-77250000D02*
X164500000Y-85250000D01*
X141300000Y-79750000D02*
X139750000Y-79750000D01*
X169250000Y-82250000D02*
X169000000Y-82500000D01*
X185000000Y-82250000D02*
X169250000Y-82250000D01*
X186250000Y-81000000D02*
X185000000Y-82250000D01*
X137000000Y-82500000D02*
X136250000Y-82500000D01*
X139750000Y-79750000D02*
X137000000Y-82500000D01*
X143250000Y-82700000D02*
X143250000Y-83750000D01*
X142500000Y-88000000D02*
X144500000Y-88000000D01*
X141000000Y-86500000D02*
X142500000Y-88000000D01*
X141000000Y-85000000D02*
X141000000Y-86500000D01*
X141500000Y-84500000D02*
X141000000Y-85000000D01*
X142500000Y-84500000D02*
X141500000Y-84500000D01*
X143250000Y-83750000D02*
X142500000Y-84500000D01*
X144750000Y-82700000D02*
X144750000Y-84000000D01*
X146750000Y-86750000D02*
X148000000Y-88000000D01*
X146750000Y-85000000D02*
X146750000Y-86750000D01*
X146250000Y-84500000D02*
X146750000Y-85000000D01*
X145250000Y-84500000D02*
X146250000Y-84500000D01*
X144750000Y-84000000D02*
X145250000Y-84500000D01*
X140500000Y-77250000D02*
X140000000Y-76750000D01*
X140000000Y-76750000D02*
X138750000Y-76750000D01*
X138750000Y-76750000D02*
X138250000Y-76250000D01*
X141300000Y-77250000D02*
X140500000Y-77250000D01*
X151000000Y-58450000D02*
X151000000Y-62500000D01*
X151000000Y-62500000D02*
X150250000Y-63250000D01*
X145600000Y-63250000D02*
X150250000Y-63250000D01*
X142250000Y-73750000D02*
X142500000Y-73500000D01*
X142500000Y-73500000D02*
X142500000Y-72750000D01*
X142500000Y-72750000D02*
X141250000Y-71500000D01*
X141250000Y-71500000D02*
X141250000Y-71000000D01*
X141300000Y-73750000D02*
X142250000Y-73750000D01*
X145600000Y-59550000D02*
X146050000Y-59550000D01*
X146050000Y-59550000D02*
X147000000Y-60500000D01*
X149500000Y-60000000D02*
X149500000Y-58450000D01*
X149000000Y-60500000D02*
X149500000Y-60000000D01*
X147000000Y-60500000D02*
X149000000Y-60500000D01*
X150250000Y-67000000D02*
X150250000Y-67750000D01*
X151250000Y-66000000D02*
X150250000Y-67000000D01*
X158250000Y-66000000D02*
X151250000Y-66000000D01*
X159500000Y-64750000D02*
X158250000Y-66000000D01*
X159500000Y-64000000D02*
X159500000Y-64750000D01*
X141300000Y-74250000D02*
X142500000Y-74250000D01*
X142500000Y-74250000D02*
X143000000Y-73750000D01*
X143000000Y-73750000D02*
X143000000Y-72500000D01*
X143000000Y-72500000D02*
X142250000Y-71750000D01*
X142250000Y-71750000D02*
X142250000Y-71250000D01*
X148000000Y-58450000D02*
X147450000Y-58450000D01*
X147450000Y-58450000D02*
X145750000Y-56750000D01*
X145750000Y-56750000D02*
X145600000Y-56750000D01*
X144250000Y-69750000D02*
X144250000Y-69000000D01*
X147500000Y-67500000D02*
X149000000Y-66000000D01*
X145750000Y-67500000D02*
X147500000Y-67500000D01*
X144250000Y-69000000D02*
X145750000Y-67500000D01*
X144250000Y-71300000D02*
X144250000Y-69750000D01*
X149000000Y-66000000D02*
X152750000Y-62250000D01*
X154000000Y-58450000D02*
X154000000Y-59000000D01*
X154000000Y-59000000D02*
X154550000Y-59550000D01*
X154550000Y-59550000D02*
X156400000Y-59550000D01*
X147750000Y-71300000D02*
X147750000Y-70000000D01*
X147750000Y-70000000D02*
X148500000Y-69250000D01*
X141300000Y-75750000D02*
X139750000Y-75750000D01*
X137500000Y-68000000D02*
X138000000Y-67500000D01*
X137500000Y-73500000D02*
X137500000Y-68000000D01*
X139750000Y-75750000D02*
X137500000Y-73500000D01*
X141300000Y-75250000D02*
X140000000Y-75250000D01*
X139250000Y-67500000D02*
X139750000Y-67500000D01*
X138000000Y-68750000D02*
X139250000Y-67500000D01*
X138000000Y-73250000D02*
X138000000Y-68750000D01*
X140000000Y-75250000D02*
X138000000Y-73250000D01*
X141300000Y-74750000D02*
X140250000Y-74750000D01*
X140500000Y-68500000D02*
X141500000Y-67500000D01*
X139000000Y-68500000D02*
X140500000Y-68500000D01*
X138500000Y-69000000D02*
X139000000Y-68500000D01*
X138500000Y-73000000D02*
X138500000Y-69000000D01*
X140250000Y-74750000D02*
X138500000Y-73000000D01*
X157250000Y-87500000D02*
X157250000Y-88750000D01*
X157250000Y-88750000D02*
X156750000Y-89250000D01*
X156000000Y-86500000D02*
X156750000Y-86500000D01*
X150500000Y-85750000D02*
X151750000Y-85750000D01*
X151750000Y-85750000D02*
X153000000Y-85750000D01*
X149250000Y-83750000D02*
X149250000Y-84363602D01*
X149250000Y-84500000D02*
X150250000Y-85500000D01*
X149250000Y-84363602D02*
X149250000Y-84500000D01*
X150250000Y-85500000D02*
X150500000Y-85750000D01*
X154000000Y-86500000D02*
X156000000Y-86500000D01*
X153250000Y-85750000D02*
X154000000Y-86500000D01*
X153000000Y-85750000D02*
X153250000Y-85750000D01*
X140000000Y-89250000D02*
X138790000Y-88040000D01*
X142250000Y-89250000D02*
X140000000Y-89250000D01*
X154000000Y-89250000D02*
X142250000Y-89250000D01*
X156750000Y-89250000D02*
X154000000Y-89250000D01*
X157250000Y-87000000D02*
X157250000Y-87500000D01*
X156750000Y-86500000D02*
X157250000Y-87000000D01*
X138790000Y-88040000D02*
X138500000Y-88040000D01*
X149250000Y-82700000D02*
X149250000Y-83750000D01*
X156250000Y-86000000D02*
X157000000Y-86000000D01*
X157000000Y-86000000D02*
X157750000Y-86750000D01*
X155250000Y-86000000D02*
X156250000Y-86000000D01*
X157250000Y-91750000D02*
X155750000Y-91750000D01*
X157750000Y-91250000D02*
X157250000Y-91750000D01*
X157750000Y-86750000D02*
X157750000Y-91250000D01*
X139670000Y-91750000D02*
X138500000Y-90580000D01*
X155750000Y-91750000D02*
X139670000Y-91750000D01*
X149750000Y-82700000D02*
X149750000Y-84250000D01*
X149750000Y-84250000D02*
X150750000Y-85250000D01*
X154250000Y-86000000D02*
X155250000Y-86000000D01*
X153500000Y-85250000D02*
X154250000Y-86000000D01*
X150750000Y-85250000D02*
X153500000Y-85250000D01*
X151500000Y-88000000D02*
X151250000Y-88000000D01*
X151250000Y-88000000D02*
X150000000Y-86750000D01*
X147250000Y-84750000D02*
X148000000Y-84750000D01*
X148000000Y-84750000D02*
X150000000Y-86750000D01*
X146250000Y-82700000D02*
X146250000Y-83750000D01*
X146250000Y-83750000D02*
X147250000Y-84750000D01*
X175000000Y-62000000D02*
X175000000Y-64750000D01*
X174750000Y-65000000D02*
X173500000Y-65000000D01*
X175000000Y-64750000D02*
X174750000Y-65000000D01*
X169750000Y-70750000D02*
X169750000Y-72750000D01*
X168500000Y-74000000D02*
X168000000Y-74000000D01*
X169750000Y-72750000D02*
X168500000Y-74000000D01*
X145250000Y-82700000D02*
X145250000Y-81500000D01*
X145250000Y-81500000D02*
X145000000Y-81250000D01*
X173500000Y-65000000D02*
X171750000Y-65000000D01*
X171750000Y-65000000D02*
X170500000Y-66250000D01*
X169750000Y-67000000D02*
X170500000Y-66250000D01*
X170500000Y-66250000D02*
X171750000Y-65000000D01*
X169750000Y-70750000D02*
X169750000Y-67000000D01*
X133250000Y-84000000D02*
X133250000Y-80250000D01*
X133250000Y-80250000D02*
X133000000Y-80000000D01*
X149750000Y-71300000D02*
X149750000Y-73000000D01*
X133250000Y-86290000D02*
X135000000Y-88040000D01*
X133250000Y-84000000D02*
X133250000Y-86290000D01*
X141300000Y-80250000D02*
X140250000Y-80250000D01*
X136750000Y-88830000D02*
X135000000Y-90580000D01*
X136750000Y-83750000D02*
X136750000Y-88830000D01*
X140250000Y-80250000D02*
X136750000Y-83750000D01*
X129750000Y-85250000D02*
X129750000Y-82000000D01*
X129750000Y-82000000D02*
X131750000Y-80000000D01*
X148750000Y-71300000D02*
X148750000Y-73500000D01*
X129750000Y-86290000D02*
X131500000Y-88040000D01*
X129750000Y-85250000D02*
X129750000Y-86290000D01*
X129250000Y-85000000D02*
X129250000Y-81250000D01*
X129250000Y-81250000D02*
X131750000Y-78750000D01*
X148250000Y-71300000D02*
X148250000Y-72500000D01*
X148250000Y-72500000D02*
X147750000Y-73000000D01*
X129250000Y-88330000D02*
X131500000Y-90580000D01*
X129250000Y-85000000D02*
X129250000Y-88330000D01*
X147250000Y-84000000D02*
X148000000Y-84000000D01*
X150250000Y-86250000D02*
X151000000Y-86250000D01*
X148000000Y-84000000D02*
X150250000Y-86250000D01*
X151000000Y-86250000D02*
X153000000Y-86250000D01*
X153000000Y-86250000D02*
X154750000Y-88000000D01*
X154750000Y-88000000D02*
X155000000Y-88000000D01*
X154500000Y-87500000D02*
X155000000Y-88000000D01*
X146750000Y-82700000D02*
X146750000Y-83500000D01*
X146750000Y-83500000D02*
X147250000Y-84000000D01*
X148750000Y-79250000D02*
X149500000Y-78500000D01*
X152700000Y-79250000D02*
X151250000Y-79250000D01*
X150500000Y-78500000D02*
X151250000Y-79250000D01*
X149500000Y-78500000D02*
X150500000Y-78500000D01*
X147250000Y-82700000D02*
X147250000Y-81500000D01*
X165750000Y-81750000D02*
X181250000Y-81750000D01*
X181250000Y-81750000D02*
X183500000Y-81750000D01*
X183500000Y-81750000D02*
X193000000Y-72250000D01*
X193000000Y-72250000D02*
X193000000Y-71500000D01*
X147250000Y-81500000D02*
X147500000Y-81250000D01*
X142000000Y-57000000D02*
X142000000Y-58900000D01*
X142000000Y-58900000D02*
X143000000Y-59900000D01*
M02*
