G04 #@! TF.FileFunction,Soldermask,Top*
%FSLAX46Y46*%
G04 Gerber Fmt 4.6, Leading zero omitted, Abs format (unit mm)*
G04 Created by KiCad (PCBNEW 4.0.0-rc1-stable) date 19/11/2015 21:53:00*
%MOMM*%
G01*
G04 APERTURE LIST*
%ADD10C,0.100000*%
%ADD11R,1.150000X1.600000*%
%ADD12R,1.650000X1.900000*%
%ADD13R,1.600000X1.150000*%
%ADD14R,2.127200X2.432000*%
%ADD15O,2.127200X2.432000*%
%ADD16R,1.543000X0.908000*%
%ADD17C,3.400000*%
%ADD18R,2.432000X2.127200*%
%ADD19O,2.432000X2.127200*%
%ADD20R,1.300000X1.600000*%
%ADD21R,1.700000X0.650000*%
%ADD22R,0.650000X1.700000*%
%ADD23R,2.500000X2.500000*%
%ADD24O,2.940000X2.432000*%
%ADD25R,2.432000X2.432000*%
%ADD26O,2.432000X2.432000*%
G04 APERTURE END LIST*
D10*
D11*
X152500000Y-58450000D03*
X152500000Y-56550000D03*
D12*
X177750000Y-71000000D03*
X177750000Y-73500000D03*
D13*
X157450000Y-85000000D03*
X155550000Y-85000000D03*
X156950000Y-74000000D03*
X155050000Y-74000000D03*
D11*
X139500000Y-71950000D03*
X139500000Y-70050000D03*
D13*
X155050000Y-71000000D03*
X156950000Y-71000000D03*
X144950000Y-85500000D03*
X143050000Y-85500000D03*
X155550000Y-83500000D03*
X157450000Y-83500000D03*
X155050000Y-72500000D03*
X156950000Y-72500000D03*
X144050000Y-66250000D03*
X145950000Y-66250000D03*
X138200000Y-79250000D03*
X136300000Y-79250000D03*
D14*
X198000000Y-77000000D03*
D15*
X200540000Y-77000000D03*
X203080000Y-77000000D03*
D16*
X136175000Y-69095000D03*
X136175000Y-70365000D03*
X136175000Y-71635000D03*
X136175000Y-72905000D03*
X129825000Y-72905000D03*
X129825000Y-71635000D03*
X129825000Y-70365000D03*
X129825000Y-69095000D03*
D14*
X160500000Y-57500000D03*
D15*
X163040000Y-57500000D03*
X165580000Y-57500000D03*
X168120000Y-57500000D03*
X170660000Y-57500000D03*
D17*
X161500000Y-74000000D03*
D18*
X144500000Y-88000000D03*
D19*
X144500000Y-90540000D03*
X144500000Y-93080000D03*
D18*
X148000000Y-88000000D03*
D19*
X148000000Y-90540000D03*
X148000000Y-93080000D03*
D18*
X151500000Y-88000000D03*
D19*
X151500000Y-90540000D03*
X151500000Y-93080000D03*
D18*
X155000000Y-88000000D03*
D19*
X155000000Y-90540000D03*
X155000000Y-93080000D03*
D17*
X127000000Y-57000000D03*
X203000000Y-57000000D03*
X203000000Y-93000000D03*
X127000000Y-93000000D03*
D14*
X198000000Y-81000000D03*
D15*
X200540000Y-81000000D03*
X203080000Y-81000000D03*
D20*
X143000000Y-59900000D03*
X143000000Y-62100000D03*
D18*
X187000000Y-62000000D03*
D19*
X187000000Y-59460000D03*
X187000000Y-56920000D03*
D18*
X184000000Y-62000000D03*
D19*
X184000000Y-59460000D03*
X184000000Y-56920000D03*
D18*
X181000000Y-62000000D03*
D19*
X181000000Y-59460000D03*
X181000000Y-56920000D03*
D18*
X178000000Y-62000000D03*
D19*
X178000000Y-59460000D03*
X178000000Y-56920000D03*
D18*
X175000000Y-62000000D03*
D19*
X175000000Y-59460000D03*
X175000000Y-56920000D03*
D18*
X190000000Y-62000000D03*
D19*
X190000000Y-59460000D03*
X190000000Y-56920000D03*
D18*
X177000000Y-88000000D03*
D19*
X177000000Y-90540000D03*
X177000000Y-93080000D03*
D18*
X180000000Y-88000000D03*
D19*
X180000000Y-90540000D03*
X180000000Y-93080000D03*
D18*
X183000000Y-88000000D03*
D19*
X183000000Y-90540000D03*
X183000000Y-93080000D03*
D18*
X186000000Y-88000000D03*
D19*
X186000000Y-90540000D03*
X186000000Y-93080000D03*
D18*
X165000000Y-88000000D03*
D19*
X165000000Y-90540000D03*
X165000000Y-93080000D03*
D18*
X168000000Y-88000000D03*
D19*
X168000000Y-90540000D03*
X168000000Y-93080000D03*
D18*
X171000000Y-88000000D03*
D19*
X171000000Y-90540000D03*
X171000000Y-93080000D03*
D18*
X174000000Y-88000000D03*
D19*
X174000000Y-90540000D03*
X174000000Y-93080000D03*
D18*
X190000000Y-88000000D03*
D19*
X190000000Y-90540000D03*
X190000000Y-93080000D03*
D14*
X194000000Y-62000000D03*
D15*
X196540000Y-62000000D03*
X199080000Y-62000000D03*
D14*
X194000000Y-88000000D03*
D15*
X196540000Y-88000000D03*
X199080000Y-88000000D03*
D18*
X127000000Y-68000000D03*
D19*
X127000000Y-70540000D03*
X127000000Y-73080000D03*
X127000000Y-75620000D03*
X127000000Y-78160000D03*
X127000000Y-80700000D03*
X127000000Y-83240000D03*
D14*
X142000000Y-57000000D03*
D15*
X139460000Y-57000000D03*
X136920000Y-57000000D03*
X134380000Y-57000000D03*
X131840000Y-57000000D03*
D21*
X141300000Y-73250000D03*
X141300000Y-73750000D03*
X141300000Y-74250000D03*
X141300000Y-74750000D03*
X141300000Y-75250000D03*
X141300000Y-75750000D03*
X141300000Y-76250000D03*
X141300000Y-76750000D03*
X141300000Y-77250000D03*
X141300000Y-77750000D03*
X141300000Y-78250000D03*
X141300000Y-78750000D03*
X141300000Y-79250000D03*
X141300000Y-79750000D03*
X141300000Y-80250000D03*
X141300000Y-80750000D03*
D22*
X143250000Y-82700000D03*
X143750000Y-82700000D03*
X144250000Y-82700000D03*
X144750000Y-82700000D03*
X145250000Y-82700000D03*
X145750000Y-82700000D03*
X146250000Y-82700000D03*
X146750000Y-82700000D03*
X147250000Y-82700000D03*
X147750000Y-82700000D03*
X148250000Y-82700000D03*
X148750000Y-82700000D03*
X149250000Y-82700000D03*
X149750000Y-82700000D03*
X150250000Y-82700000D03*
X150750000Y-82700000D03*
D21*
X152700000Y-80750000D03*
X152700000Y-80250000D03*
X152700000Y-79750000D03*
X152700000Y-79250000D03*
X152700000Y-78750000D03*
X152700000Y-78250000D03*
X152700000Y-77750000D03*
X152700000Y-77250000D03*
X152700000Y-76750000D03*
X152700000Y-76250000D03*
X152700000Y-75750000D03*
X152700000Y-75250000D03*
X152700000Y-74750000D03*
X152700000Y-74250000D03*
X152700000Y-73750000D03*
X152700000Y-73250000D03*
D22*
X150750000Y-71300000D03*
X150250000Y-71300000D03*
X149750000Y-71300000D03*
X149250000Y-71300000D03*
X148750000Y-71300000D03*
X148250000Y-71300000D03*
X147750000Y-71300000D03*
X147250000Y-71300000D03*
X146750000Y-71300000D03*
X146250000Y-71300000D03*
X145750000Y-71300000D03*
X145250000Y-71300000D03*
X144750000Y-71300000D03*
X144250000Y-71300000D03*
X143750000Y-71300000D03*
X143250000Y-71300000D03*
D11*
X151000000Y-58450000D03*
X151000000Y-56550000D03*
X149500000Y-58450000D03*
X149500000Y-56550000D03*
X148000000Y-58450000D03*
X148000000Y-56550000D03*
X154000000Y-58450000D03*
X154000000Y-56550000D03*
D23*
X145600000Y-56750000D03*
X156400000Y-56750000D03*
X145600000Y-59550000D03*
X156400000Y-59550000D03*
X156400000Y-63250000D03*
X145600000Y-63250000D03*
D24*
X185000000Y-73500000D03*
X185000000Y-70960000D03*
X185000000Y-76040000D03*
X175000000Y-73500000D03*
X175000000Y-70960000D03*
X175000000Y-76040000D03*
D25*
X200000000Y-73000000D03*
D26*
X197460000Y-73000000D03*
D18*
X138500000Y-85500000D03*
D19*
X138500000Y-88040000D03*
X138500000Y-90580000D03*
X138500000Y-93120000D03*
D18*
X135000000Y-85500000D03*
D19*
X135000000Y-88040000D03*
X135000000Y-90580000D03*
X135000000Y-93120000D03*
D18*
X131500000Y-85500000D03*
D19*
X131500000Y-88040000D03*
X131500000Y-90580000D03*
X131500000Y-93120000D03*
M02*
