M48
;DRILL file {KiCad 4.0.0-rc1-stable} date 19/11/2015 21:53:02
;FORMAT={-:-/ absolute / inch / decimal}
FMAT,2
INCH,TZ
T1C0.012
T2C0.016
T3C0.040
T4C0.043
T5C0.045
T6C0.083
%
G90
G05
M72
T1
X4.9803Y-2.3622
X5.0591Y-2.3622
X5.1673Y-2.9823
X5.1772Y-2.7165
X5.187Y-3.1004
X5.187Y-3.1496
X5.2362Y-2.7165
X5.2362Y-2.7657
X5.2362Y-3.1496
X5.2756Y-2.7953
X5.2854Y-2.7165
X5.2854Y-3.1496
X5.3051Y-2.8248
X5.315Y-3.1201
X5.3346Y-2.9921
X5.3642Y-2.9331
X5.3642Y-3.248
X5.374Y-2.3622
X5.4331Y-2.6575
X5.4429Y-3.002
X5.502Y-2.6575
X5.5315Y-2.7559
X5.5315Y-2.8346
X5.561Y-2.7953
X5.5709Y-2.6575
X5.5906Y-3.3661
X5.6004Y-2.8051
X5.6496Y-2.5098
X5.6594Y-3.1988
X5.6693Y-2.5591
X5.6791Y-2.8937
X5.6791Y-2.9429
X5.7087Y-3.1988
X5.7382Y-2.9429
X5.7382Y-2.9921
X5.748Y-3.3661
X5.7579Y-3.1988
X5.7598Y-2.7402
X5.7972Y-2.6083
X5.7992Y-2.7283
X5.8071Y-3.1988
X5.8169Y-2.874
X5.8465Y-2.7264
X5.8563Y-2.8937
X5.8563Y-3.1201
X5.8957Y-2.874
X5.9055Y-3.1201
X5.9055Y-3.1594
X5.9154Y-2.4902
X5.9154Y-2.6673
X5.9449Y-2.7559
X6.0138Y-2.4508
X6.0335Y-2.8248
X6.1024Y-2.7559
X6.122Y-3.1398
X6.122Y-3.2382
X6.1811Y-2.7559
X6.25Y-3.3957
X6.2795Y-2.5197
X6.4567Y-3.1398
X6.4764Y-2.3917
X6.5256Y-3.2185
X6.565Y-3.189
X6.6142Y-2.9134
X6.624Y-3.189
X6.6535Y-3.248
X6.7126Y-2.5591
X7.3327Y-3.189
X7.5591Y-3.2677
X7.5984Y-2.815
X7.7165Y-2.5984
T2
X7.0866Y-2.7953
X7.0866Y-2.8937
T3
X5.Y-2.6772
X5.Y-2.7772
X5.Y-2.8772
X5.Y-2.9772
X5.Y-3.0772
X5.Y-3.1772
X5.Y-3.2772
X5.1772Y-3.3661
X5.1772Y-3.4661
X5.1772Y-3.5661
X5.1772Y-3.6661
X5.1906Y-2.2441
X5.2906Y-2.2441
X5.315Y-3.3661
X5.315Y-3.4661
X5.315Y-3.5661
X5.315Y-3.6661
X5.3906Y-2.2441
X5.4528Y-3.3661
X5.4528Y-3.4661
X5.4528Y-3.5661
X5.4528Y-3.6661
X5.4906Y-2.2441
X5.5906Y-2.2441
X5.689Y-3.4646
X5.689Y-3.5646
X5.689Y-3.6646
X5.8268Y-3.4646
X5.8268Y-3.5646
X5.8268Y-3.6646
X5.9646Y-3.4646
X5.9646Y-3.5646
X5.9646Y-3.6646
X6.1024Y-3.4646
X6.1024Y-3.5646
X6.1024Y-3.6646
X6.3189Y-2.2638
X6.4189Y-2.2638
X6.4961Y-3.4646
X6.4961Y-3.5646
X6.4961Y-3.6646
X6.5189Y-2.2638
X6.6142Y-3.4646
X6.6142Y-3.5646
X6.6142Y-3.6646
X6.6189Y-2.2638
X6.7189Y-2.2638
X6.7323Y-3.4646
X6.7323Y-3.5646
X6.7323Y-3.6646
X6.8504Y-3.4646
X6.8504Y-3.5646
X6.8504Y-3.6646
X6.8898Y-2.2409
X6.8898Y-2.3409
X6.8898Y-2.4409
X6.9685Y-3.4646
X6.9685Y-3.5646
X6.9685Y-3.6646
X7.0079Y-2.2409
X7.0079Y-2.3409
X7.0079Y-2.4409
X7.0866Y-3.4646
X7.0866Y-3.5646
X7.0866Y-3.6646
X7.126Y-2.2409
X7.126Y-2.3409
X7.126Y-2.4409
X7.2047Y-3.4646
X7.2047Y-3.5646
X7.2047Y-3.6646
X7.2441Y-2.2409
X7.2441Y-2.3409
X7.2441Y-2.4409
X7.3228Y-3.4646
X7.3228Y-3.5646
X7.3228Y-3.6646
X7.3622Y-2.2409
X7.3622Y-2.3409
X7.3622Y-2.4409
X7.4803Y-2.2409
X7.4803Y-2.3409
X7.4803Y-2.4409
X7.4803Y-3.4646
X7.4803Y-3.5646
X7.4803Y-3.6646
X7.6378Y-2.4409
X7.6378Y-3.4646
X7.7378Y-2.4409
X7.7378Y-3.4646
X7.774Y-2.874
X7.7953Y-3.0315
X7.7953Y-3.189
X7.8378Y-2.4409
X7.8378Y-3.4646
X7.874Y-2.874
X7.8953Y-3.0315
X7.8953Y-3.189
X7.9953Y-3.0315
X7.9953Y-3.189
T4
X5.7323Y-2.2343
X5.7323Y-2.3445
X5.7323Y-2.4902
X6.1575Y-2.2343
X6.1575Y-2.3445
X6.1575Y-2.4902
T5
X6.8898Y-2.7937
X6.8898Y-2.8937
X6.8898Y-2.9937
X7.2835Y-2.7937
X7.2835Y-2.8937
X7.2835Y-2.9937
T6
X5.Y-2.2441
X5.Y-3.6614
X6.3583Y-2.9134
X7.9921Y-2.2441
X7.9921Y-3.6614
T0
M30
