G04 #@! TF.FileFunction,Legend,Top*
%FSLAX46Y46*%
G04 Gerber Fmt 4.6, Leading zero omitted, Abs format (unit mm)*
G04 Created by KiCad (PCBNEW 4.0.0-rc1-stable) date 19/11/2015 21:53:00*
%MOMM*%
G01*
G04 APERTURE LIST*
%ADD10C,0.100000*%
%ADD11C,0.150000*%
G04 APERTURE END LIST*
D10*
D11*
X151900000Y-57850000D02*
X151900000Y-57150000D01*
X153100000Y-57150000D02*
X153100000Y-57850000D01*
X178600000Y-72750000D02*
X178600000Y-71750000D01*
X176900000Y-71750000D02*
X176900000Y-72750000D01*
X156850000Y-85600000D02*
X156150000Y-85600000D01*
X156150000Y-84400000D02*
X156850000Y-84400000D01*
X156350000Y-74600000D02*
X155650000Y-74600000D01*
X155650000Y-73400000D02*
X156350000Y-73400000D01*
X138900000Y-71350000D02*
X138900000Y-70650000D01*
X140100000Y-70650000D02*
X140100000Y-71350000D01*
X155650000Y-70400000D02*
X156350000Y-70400000D01*
X156350000Y-71600000D02*
X155650000Y-71600000D01*
X144350000Y-86100000D02*
X143650000Y-86100000D01*
X143650000Y-84900000D02*
X144350000Y-84900000D01*
X156150000Y-82900000D02*
X156850000Y-82900000D01*
X156850000Y-84100000D02*
X156150000Y-84100000D01*
X155650000Y-71900000D02*
X156350000Y-71900000D01*
X156350000Y-73100000D02*
X155650000Y-73100000D01*
X144650000Y-65650000D02*
X145350000Y-65650000D01*
X145350000Y-66850000D02*
X144650000Y-66850000D01*
X137600000Y-79850000D02*
X136900000Y-79850000D01*
X136900000Y-78650000D02*
X137600000Y-78650000D01*
X135286000Y-68460000D02*
X135286000Y-73540000D01*
X135286000Y-73540000D02*
X130714000Y-73540000D01*
X130714000Y-73540000D02*
X130714000Y-68460000D01*
X130714000Y-68460000D02*
X135286000Y-68460000D01*
X133762000Y-68460000D02*
X133762000Y-68968000D01*
X133762000Y-68968000D02*
X132492000Y-68968000D01*
X132492000Y-68968000D02*
X132492000Y-68460000D01*
X163786000Y-74000000D02*
G75*
G03X163786000Y-74000000I-2286000J0D01*
G01*
X129286000Y-57000000D02*
G75*
G03X129286000Y-57000000I-2286000J0D01*
G01*
X205286000Y-57000000D02*
G75*
G03X205286000Y-57000000I-2286000J0D01*
G01*
X205286000Y-93000000D02*
G75*
G03X205286000Y-93000000I-2286000J0D01*
G01*
X129286000Y-93000000D02*
G75*
G03X129286000Y-93000000I-2286000J0D01*
G01*
X142325000Y-61500000D02*
X142325000Y-60500000D01*
X143675000Y-60500000D02*
X143675000Y-61500000D01*
X141825000Y-71825000D02*
X141825000Y-72900000D01*
X152175000Y-71825000D02*
X152175000Y-72900000D01*
X152175000Y-82175000D02*
X152175000Y-81100000D01*
X141825000Y-82175000D02*
X141825000Y-81100000D01*
X141825000Y-71825000D02*
X142900000Y-71825000D01*
X141825000Y-82175000D02*
X142900000Y-82175000D01*
X152175000Y-82175000D02*
X151100000Y-82175000D01*
X152175000Y-71825000D02*
X151100000Y-71825000D01*
X141825000Y-72900000D02*
X140800000Y-72900000D01*
X150400000Y-57850000D02*
X150400000Y-57150000D01*
X151600000Y-57150000D02*
X151600000Y-57850000D01*
X148900000Y-57850000D02*
X148900000Y-57150000D01*
X150100000Y-57150000D02*
X150100000Y-57850000D01*
X147400000Y-57850000D02*
X147400000Y-57150000D01*
X148600000Y-57150000D02*
X148600000Y-57850000D01*
X153400000Y-57850000D02*
X153400000Y-57150000D01*
X154600000Y-57150000D02*
X154600000Y-57850000D01*
X152857143Y-60666666D02*
X152904762Y-60714285D01*
X152952381Y-60857142D01*
X152952381Y-60952380D01*
X152904762Y-61095238D01*
X152809524Y-61190476D01*
X152714286Y-61238095D01*
X152523810Y-61285714D01*
X152380952Y-61285714D01*
X152190476Y-61238095D01*
X152095238Y-61190476D01*
X152000000Y-61095238D01*
X151952381Y-60952380D01*
X151952381Y-60857142D01*
X152000000Y-60714285D01*
X152047619Y-60666666D01*
X152952381Y-59714285D02*
X152952381Y-60285714D01*
X152952381Y-60000000D02*
X151952381Y-60000000D01*
X152095238Y-60095238D01*
X152190476Y-60190476D01*
X152238095Y-60285714D01*
X180207143Y-72416666D02*
X180254762Y-72464285D01*
X180302381Y-72607142D01*
X180302381Y-72702380D01*
X180254762Y-72845238D01*
X180159524Y-72940476D01*
X180064286Y-72988095D01*
X179873810Y-73035714D01*
X179730952Y-73035714D01*
X179540476Y-72988095D01*
X179445238Y-72940476D01*
X179350000Y-72845238D01*
X179302381Y-72702380D01*
X179302381Y-72607142D01*
X179350000Y-72464285D01*
X179397619Y-72416666D01*
X179302381Y-72083333D02*
X179302381Y-71416666D01*
X180302381Y-71845238D01*
X156333334Y-86857143D02*
X156285715Y-86904762D01*
X156142858Y-86952381D01*
X156047620Y-86952381D01*
X155904762Y-86904762D01*
X155809524Y-86809524D01*
X155761905Y-86714286D01*
X155714286Y-86523810D01*
X155714286Y-86380952D01*
X155761905Y-86190476D01*
X155809524Y-86095238D01*
X155904762Y-86000000D01*
X156047620Y-85952381D01*
X156142858Y-85952381D01*
X156285715Y-86000000D01*
X156333334Y-86047619D01*
X156904762Y-86380952D02*
X156809524Y-86333333D01*
X156761905Y-86285714D01*
X156714286Y-86190476D01*
X156714286Y-86142857D01*
X156761905Y-86047619D01*
X156809524Y-86000000D01*
X156904762Y-85952381D01*
X157095239Y-85952381D01*
X157190477Y-86000000D01*
X157238096Y-86047619D01*
X157285715Y-86142857D01*
X157285715Y-86190476D01*
X157238096Y-86285714D01*
X157190477Y-86333333D01*
X157095239Y-86380952D01*
X156904762Y-86380952D01*
X156809524Y-86428571D01*
X156761905Y-86476190D01*
X156714286Y-86571429D01*
X156714286Y-86761905D01*
X156761905Y-86857143D01*
X156809524Y-86904762D01*
X156904762Y-86952381D01*
X157095239Y-86952381D01*
X157190477Y-86904762D01*
X157238096Y-86857143D01*
X157285715Y-86761905D01*
X157285715Y-86571429D01*
X157238096Y-86476190D01*
X157190477Y-86428571D01*
X157095239Y-86380952D01*
X155833334Y-76257143D02*
X155785715Y-76304762D01*
X155642858Y-76352381D01*
X155547620Y-76352381D01*
X155404762Y-76304762D01*
X155309524Y-76209524D01*
X155261905Y-76114286D01*
X155214286Y-75923810D01*
X155214286Y-75780952D01*
X155261905Y-75590476D01*
X155309524Y-75495238D01*
X155404762Y-75400000D01*
X155547620Y-75352381D01*
X155642858Y-75352381D01*
X155785715Y-75400000D01*
X155833334Y-75447619D01*
X156309524Y-76352381D02*
X156500000Y-76352381D01*
X156595239Y-76304762D01*
X156642858Y-76257143D01*
X156738096Y-76114286D01*
X156785715Y-75923810D01*
X156785715Y-75542857D01*
X156738096Y-75447619D01*
X156690477Y-75400000D01*
X156595239Y-75352381D01*
X156404762Y-75352381D01*
X156309524Y-75400000D01*
X156261905Y-75447619D01*
X156214286Y-75542857D01*
X156214286Y-75780952D01*
X156261905Y-75876190D01*
X156309524Y-75923810D01*
X156404762Y-75971429D01*
X156595239Y-75971429D01*
X156690477Y-75923810D01*
X156738096Y-75876190D01*
X156785715Y-75780952D01*
X137957143Y-71642857D02*
X138004762Y-71690476D01*
X138052381Y-71833333D01*
X138052381Y-71928571D01*
X138004762Y-72071429D01*
X137909524Y-72166667D01*
X137814286Y-72214286D01*
X137623810Y-72261905D01*
X137480952Y-72261905D01*
X137290476Y-72214286D01*
X137195238Y-72166667D01*
X137100000Y-72071429D01*
X137052381Y-71928571D01*
X137052381Y-71833333D01*
X137100000Y-71690476D01*
X137147619Y-71642857D01*
X138052381Y-70690476D02*
X138052381Y-71261905D01*
X138052381Y-70976191D02*
X137052381Y-70976191D01*
X137195238Y-71071429D01*
X137290476Y-71166667D01*
X137338095Y-71261905D01*
X138052381Y-69738095D02*
X138052381Y-70309524D01*
X138052381Y-70023810D02*
X137052381Y-70023810D01*
X137195238Y-70119048D01*
X137290476Y-70214286D01*
X137338095Y-70309524D01*
X155357143Y-68357143D02*
X155309524Y-68404762D01*
X155166667Y-68452381D01*
X155071429Y-68452381D01*
X154928571Y-68404762D01*
X154833333Y-68309524D01*
X154785714Y-68214286D01*
X154738095Y-68023810D01*
X154738095Y-67880952D01*
X154785714Y-67690476D01*
X154833333Y-67595238D01*
X154928571Y-67500000D01*
X155071429Y-67452381D01*
X155166667Y-67452381D01*
X155309524Y-67500000D01*
X155357143Y-67547619D01*
X156309524Y-68452381D02*
X155738095Y-68452381D01*
X156023809Y-68452381D02*
X156023809Y-67452381D01*
X155928571Y-67595238D01*
X155833333Y-67690476D01*
X155738095Y-67738095D01*
X156690476Y-67547619D02*
X156738095Y-67500000D01*
X156833333Y-67452381D01*
X157071429Y-67452381D01*
X157166667Y-67500000D01*
X157214286Y-67547619D01*
X157261905Y-67642857D01*
X157261905Y-67738095D01*
X157214286Y-67880952D01*
X156642857Y-68452381D01*
X157261905Y-68452381D01*
X143357143Y-84857143D02*
X143309524Y-84904762D01*
X143166667Y-84952381D01*
X143071429Y-84952381D01*
X142928571Y-84904762D01*
X142833333Y-84809524D01*
X142785714Y-84714286D01*
X142738095Y-84523810D01*
X142738095Y-84380952D01*
X142785714Y-84190476D01*
X142833333Y-84095238D01*
X142928571Y-84000000D01*
X143071429Y-83952381D01*
X143166667Y-83952381D01*
X143309524Y-84000000D01*
X143357143Y-84047619D01*
X144309524Y-84952381D02*
X143738095Y-84952381D01*
X144023809Y-84952381D02*
X144023809Y-83952381D01*
X143928571Y-84095238D01*
X143833333Y-84190476D01*
X143738095Y-84238095D01*
X144642857Y-83952381D02*
X145261905Y-83952381D01*
X144928571Y-84333333D01*
X145071429Y-84333333D01*
X145166667Y-84380952D01*
X145214286Y-84428571D01*
X145261905Y-84523810D01*
X145261905Y-84761905D01*
X145214286Y-84857143D01*
X145166667Y-84904762D01*
X145071429Y-84952381D01*
X144785714Y-84952381D01*
X144690476Y-84904762D01*
X144642857Y-84857143D01*
X155857143Y-82357143D02*
X155809524Y-82404762D01*
X155666667Y-82452381D01*
X155571429Y-82452381D01*
X155428571Y-82404762D01*
X155333333Y-82309524D01*
X155285714Y-82214286D01*
X155238095Y-82023810D01*
X155238095Y-81880952D01*
X155285714Y-81690476D01*
X155333333Y-81595238D01*
X155428571Y-81500000D01*
X155571429Y-81452381D01*
X155666667Y-81452381D01*
X155809524Y-81500000D01*
X155857143Y-81547619D01*
X156809524Y-82452381D02*
X156238095Y-82452381D01*
X156523809Y-82452381D02*
X156523809Y-81452381D01*
X156428571Y-81595238D01*
X156333333Y-81690476D01*
X156238095Y-81738095D01*
X157666667Y-81785714D02*
X157666667Y-82452381D01*
X157428571Y-81404762D02*
X157190476Y-82119048D01*
X157809524Y-82119048D01*
X155357143Y-69857143D02*
X155309524Y-69904762D01*
X155166667Y-69952381D01*
X155071429Y-69952381D01*
X154928571Y-69904762D01*
X154833333Y-69809524D01*
X154785714Y-69714286D01*
X154738095Y-69523810D01*
X154738095Y-69380952D01*
X154785714Y-69190476D01*
X154833333Y-69095238D01*
X154928571Y-69000000D01*
X155071429Y-68952381D01*
X155166667Y-68952381D01*
X155309524Y-69000000D01*
X155357143Y-69047619D01*
X156309524Y-69952381D02*
X155738095Y-69952381D01*
X156023809Y-69952381D02*
X156023809Y-68952381D01*
X155928571Y-69095238D01*
X155833333Y-69190476D01*
X155738095Y-69238095D01*
X157214286Y-68952381D02*
X156738095Y-68952381D01*
X156690476Y-69428571D01*
X156738095Y-69380952D01*
X156833333Y-69333333D01*
X157071429Y-69333333D01*
X157166667Y-69380952D01*
X157214286Y-69428571D01*
X157261905Y-69523810D01*
X157261905Y-69761905D01*
X157214286Y-69857143D01*
X157166667Y-69904762D01*
X157071429Y-69952381D01*
X156833333Y-69952381D01*
X156738095Y-69904762D01*
X156690476Y-69857143D01*
X144357143Y-67857143D02*
X144309524Y-67904762D01*
X144166667Y-67952381D01*
X144071429Y-67952381D01*
X143928571Y-67904762D01*
X143833333Y-67809524D01*
X143785714Y-67714286D01*
X143738095Y-67523810D01*
X143738095Y-67380952D01*
X143785714Y-67190476D01*
X143833333Y-67095238D01*
X143928571Y-67000000D01*
X144071429Y-66952381D01*
X144166667Y-66952381D01*
X144309524Y-67000000D01*
X144357143Y-67047619D01*
X145309524Y-67952381D02*
X144738095Y-67952381D01*
X145023809Y-67952381D02*
X145023809Y-66952381D01*
X144928571Y-67095238D01*
X144833333Y-67190476D01*
X144738095Y-67238095D01*
X146166667Y-66952381D02*
X145976190Y-66952381D01*
X145880952Y-67000000D01*
X145833333Y-67047619D01*
X145738095Y-67190476D01*
X145690476Y-67380952D01*
X145690476Y-67761905D01*
X145738095Y-67857143D01*
X145785714Y-67904762D01*
X145880952Y-67952381D01*
X146071429Y-67952381D01*
X146166667Y-67904762D01*
X146214286Y-67857143D01*
X146261905Y-67761905D01*
X146261905Y-67523810D01*
X146214286Y-67428571D01*
X146166667Y-67380952D01*
X146071429Y-67333333D01*
X145880952Y-67333333D01*
X145785714Y-67380952D01*
X145738095Y-67428571D01*
X145690476Y-67523810D01*
X136607143Y-81507143D02*
X136559524Y-81554762D01*
X136416667Y-81602381D01*
X136321429Y-81602381D01*
X136178571Y-81554762D01*
X136083333Y-81459524D01*
X136035714Y-81364286D01*
X135988095Y-81173810D01*
X135988095Y-81030952D01*
X136035714Y-80840476D01*
X136083333Y-80745238D01*
X136178571Y-80650000D01*
X136321429Y-80602381D01*
X136416667Y-80602381D01*
X136559524Y-80650000D01*
X136607143Y-80697619D01*
X137559524Y-81602381D02*
X136988095Y-81602381D01*
X137273809Y-81602381D02*
X137273809Y-80602381D01*
X137178571Y-80745238D01*
X137083333Y-80840476D01*
X136988095Y-80888095D01*
X137892857Y-80602381D02*
X138559524Y-80602381D01*
X138130952Y-81602381D01*
X132452381Y-71976190D02*
X131452381Y-71976190D01*
X132357143Y-70928571D02*
X132404762Y-70976190D01*
X132452381Y-71119047D01*
X132452381Y-71214285D01*
X132404762Y-71357143D01*
X132309524Y-71452381D01*
X132214286Y-71500000D01*
X132023810Y-71547619D01*
X131880952Y-71547619D01*
X131690476Y-71500000D01*
X131595238Y-71452381D01*
X131500000Y-71357143D01*
X131452381Y-71214285D01*
X131452381Y-71119047D01*
X131500000Y-70976190D01*
X131547619Y-70928571D01*
X132452381Y-69976190D02*
X132452381Y-70547619D01*
X132452381Y-70261905D02*
X131452381Y-70261905D01*
X131595238Y-70357143D01*
X131690476Y-70452381D01*
X131738095Y-70547619D01*
X159785715Y-77952381D02*
X159785715Y-76952381D01*
X160261905Y-77952381D02*
X160261905Y-76952381D01*
X160595239Y-77666667D01*
X160928572Y-76952381D01*
X160928572Y-77952381D01*
X161404762Y-76952381D02*
X161404762Y-77761905D01*
X161452381Y-77857143D01*
X161500000Y-77904762D01*
X161595238Y-77952381D01*
X161785715Y-77952381D01*
X161880953Y-77904762D01*
X161928572Y-77857143D01*
X161976191Y-77761905D01*
X161976191Y-76952381D01*
X162785715Y-77428571D02*
X162452381Y-77428571D01*
X162452381Y-77952381D02*
X162452381Y-76952381D01*
X162928572Y-76952381D01*
X163309524Y-77952381D02*
X163309524Y-76952381D01*
X163690476Y-76952381D02*
X164357143Y-77952381D01*
X164357143Y-76952381D02*
X163690476Y-77952381D01*
X165261905Y-77952381D02*
X164690476Y-77952381D01*
X164976190Y-77952381D02*
X164976190Y-76952381D01*
X164880952Y-77095238D01*
X164785714Y-77190476D01*
X164690476Y-77238095D01*
X126261905Y-54404381D02*
X126261905Y-53404381D01*
X126642858Y-53404381D01*
X126738096Y-53452000D01*
X126785715Y-53499619D01*
X126833334Y-53594857D01*
X126833334Y-53737714D01*
X126785715Y-53832952D01*
X126738096Y-53880571D01*
X126642858Y-53928190D01*
X126261905Y-53928190D01*
X127309524Y-54404381D02*
X127500000Y-54404381D01*
X127595239Y-54356762D01*
X127642858Y-54309143D01*
X127738096Y-54166286D01*
X127785715Y-53975810D01*
X127785715Y-53594857D01*
X127738096Y-53499619D01*
X127690477Y-53452000D01*
X127595239Y-53404381D01*
X127404762Y-53404381D01*
X127309524Y-53452000D01*
X127261905Y-53499619D01*
X127214286Y-53594857D01*
X127214286Y-53832952D01*
X127261905Y-53928190D01*
X127309524Y-53975810D01*
X127404762Y-54023429D01*
X127595239Y-54023429D01*
X127690477Y-53975810D01*
X127738096Y-53928190D01*
X127785715Y-53832952D01*
X201785714Y-54404381D02*
X201785714Y-53404381D01*
X202166667Y-53404381D01*
X202261905Y-53452000D01*
X202309524Y-53499619D01*
X202357143Y-53594857D01*
X202357143Y-53737714D01*
X202309524Y-53832952D01*
X202261905Y-53880571D01*
X202166667Y-53928190D01*
X201785714Y-53928190D01*
X203309524Y-54404381D02*
X202738095Y-54404381D01*
X203023809Y-54404381D02*
X203023809Y-53404381D01*
X202928571Y-53547238D01*
X202833333Y-53642476D01*
X202738095Y-53690095D01*
X203928571Y-53404381D02*
X204023810Y-53404381D01*
X204119048Y-53452000D01*
X204166667Y-53499619D01*
X204214286Y-53594857D01*
X204261905Y-53785333D01*
X204261905Y-54023429D01*
X204214286Y-54213905D01*
X204166667Y-54309143D01*
X204119048Y-54356762D01*
X204023810Y-54404381D01*
X203928571Y-54404381D01*
X203833333Y-54356762D01*
X203785714Y-54309143D01*
X203738095Y-54213905D01*
X203690476Y-54023429D01*
X203690476Y-53785333D01*
X203738095Y-53594857D01*
X203785714Y-53499619D01*
X203833333Y-53452000D01*
X203928571Y-53404381D01*
X201785714Y-96702381D02*
X201785714Y-95702381D01*
X202166667Y-95702381D01*
X202261905Y-95750000D01*
X202309524Y-95797619D01*
X202357143Y-95892857D01*
X202357143Y-96035714D01*
X202309524Y-96130952D01*
X202261905Y-96178571D01*
X202166667Y-96226190D01*
X201785714Y-96226190D01*
X203309524Y-96702381D02*
X202738095Y-96702381D01*
X203023809Y-96702381D02*
X203023809Y-95702381D01*
X202928571Y-95845238D01*
X202833333Y-95940476D01*
X202738095Y-95988095D01*
X204261905Y-96702381D02*
X203690476Y-96702381D01*
X203976190Y-96702381D02*
X203976190Y-95702381D01*
X203880952Y-95845238D01*
X203785714Y-95940476D01*
X203690476Y-95988095D01*
X121535714Y-93702381D02*
X121535714Y-92702381D01*
X121916667Y-92702381D01*
X122011905Y-92750000D01*
X122059524Y-92797619D01*
X122107143Y-92892857D01*
X122107143Y-93035714D01*
X122059524Y-93130952D01*
X122011905Y-93178571D01*
X121916667Y-93226190D01*
X121535714Y-93226190D01*
X123059524Y-93702381D02*
X122488095Y-93702381D01*
X122773809Y-93702381D02*
X122773809Y-92702381D01*
X122678571Y-92845238D01*
X122583333Y-92940476D01*
X122488095Y-92988095D01*
X123440476Y-92797619D02*
X123488095Y-92750000D01*
X123583333Y-92702381D01*
X123821429Y-92702381D01*
X123916667Y-92750000D01*
X123964286Y-92797619D01*
X124011905Y-92892857D01*
X124011905Y-92988095D01*
X123964286Y-93130952D01*
X123392857Y-93702381D01*
X124011905Y-93702381D01*
X141952381Y-61166666D02*
X141476190Y-61500000D01*
X141952381Y-61738095D02*
X140952381Y-61738095D01*
X140952381Y-61357142D01*
X141000000Y-61261904D01*
X141047619Y-61214285D01*
X141142857Y-61166666D01*
X141285714Y-61166666D01*
X141380952Y-61214285D01*
X141428571Y-61261904D01*
X141476190Y-61357142D01*
X141476190Y-61738095D01*
X140952381Y-60833333D02*
X140952381Y-60166666D01*
X141952381Y-60595238D01*
X151738095Y-68952381D02*
X151738095Y-69761905D01*
X151785714Y-69857143D01*
X151833333Y-69904762D01*
X151928571Y-69952381D01*
X152119048Y-69952381D01*
X152214286Y-69904762D01*
X152261905Y-69857143D01*
X152309524Y-69761905D01*
X152309524Y-68952381D01*
X152738095Y-69047619D02*
X152785714Y-69000000D01*
X152880952Y-68952381D01*
X153119048Y-68952381D01*
X153214286Y-69000000D01*
X153261905Y-69047619D01*
X153309524Y-69142857D01*
X153309524Y-69238095D01*
X153261905Y-69380952D01*
X152690476Y-69952381D01*
X153309524Y-69952381D01*
X151357143Y-60666666D02*
X151404762Y-60714285D01*
X151452381Y-60857142D01*
X151452381Y-60952380D01*
X151404762Y-61095238D01*
X151309524Y-61190476D01*
X151214286Y-61238095D01*
X151023810Y-61285714D01*
X150880952Y-61285714D01*
X150690476Y-61238095D01*
X150595238Y-61190476D01*
X150500000Y-61095238D01*
X150452381Y-60952380D01*
X150452381Y-60857142D01*
X150500000Y-60714285D01*
X150547619Y-60666666D01*
X150547619Y-60285714D02*
X150500000Y-60238095D01*
X150452381Y-60142857D01*
X150452381Y-59904761D01*
X150500000Y-59809523D01*
X150547619Y-59761904D01*
X150642857Y-59714285D01*
X150738095Y-59714285D01*
X150880952Y-59761904D01*
X151452381Y-60333333D01*
X151452381Y-59714285D01*
X149857143Y-60666666D02*
X149904762Y-60714285D01*
X149952381Y-60857142D01*
X149952381Y-60952380D01*
X149904762Y-61095238D01*
X149809524Y-61190476D01*
X149714286Y-61238095D01*
X149523810Y-61285714D01*
X149380952Y-61285714D01*
X149190476Y-61238095D01*
X149095238Y-61190476D01*
X149000000Y-61095238D01*
X148952381Y-60952380D01*
X148952381Y-60857142D01*
X149000000Y-60714285D01*
X149047619Y-60666666D01*
X148952381Y-60333333D02*
X148952381Y-59714285D01*
X149333333Y-60047619D01*
X149333333Y-59904761D01*
X149380952Y-59809523D01*
X149428571Y-59761904D01*
X149523810Y-59714285D01*
X149761905Y-59714285D01*
X149857143Y-59761904D01*
X149904762Y-59809523D01*
X149952381Y-59904761D01*
X149952381Y-60190476D01*
X149904762Y-60285714D01*
X149857143Y-60333333D01*
X148357143Y-60666666D02*
X148404762Y-60714285D01*
X148452381Y-60857142D01*
X148452381Y-60952380D01*
X148404762Y-61095238D01*
X148309524Y-61190476D01*
X148214286Y-61238095D01*
X148023810Y-61285714D01*
X147880952Y-61285714D01*
X147690476Y-61238095D01*
X147595238Y-61190476D01*
X147500000Y-61095238D01*
X147452381Y-60952380D01*
X147452381Y-60857142D01*
X147500000Y-60714285D01*
X147547619Y-60666666D01*
X147785714Y-59809523D02*
X148452381Y-59809523D01*
X147404762Y-60047619D02*
X148119048Y-60285714D01*
X148119048Y-59666666D01*
X154357143Y-60666666D02*
X154404762Y-60714285D01*
X154452381Y-60857142D01*
X154452381Y-60952380D01*
X154404762Y-61095238D01*
X154309524Y-61190476D01*
X154214286Y-61238095D01*
X154023810Y-61285714D01*
X153880952Y-61285714D01*
X153690476Y-61238095D01*
X153595238Y-61190476D01*
X153500000Y-61095238D01*
X153452381Y-60952380D01*
X153452381Y-60857142D01*
X153500000Y-60714285D01*
X153547619Y-60666666D01*
X153452381Y-59761904D02*
X153452381Y-60238095D01*
X153928571Y-60285714D01*
X153880952Y-60238095D01*
X153833333Y-60142857D01*
X153833333Y-59904761D01*
X153880952Y-59809523D01*
X153928571Y-59761904D01*
X154023810Y-59714285D01*
X154261905Y-59714285D01*
X154357143Y-59761904D01*
X154404762Y-59809523D01*
X154452381Y-59904761D01*
X154452381Y-60142857D01*
X154404762Y-60238095D01*
X154357143Y-60285714D01*
M02*
