G04 #@! TF.FileFunction,Copper,L4,Bot,Signal*
%FSLAX46Y46*%
G04 Gerber Fmt 4.6, Leading zero omitted, Abs format (unit mm)*
G04 Created by KiCad (PCBNEW 4.0.0-rc1-stable) date 19/11/2015 21:53:00*
%MOMM*%
G01*
G04 APERTURE LIST*
%ADD10C,0.100000*%
%ADD11C,0.300000*%
%ADD12R,0.750000X1.200000*%
%ADD13R,1.727200X2.032000*%
%ADD14O,1.727200X2.032000*%
%ADD15R,1.198880X1.198880*%
%ADD16C,3.000000*%
%ADD17R,2.032000X1.727200*%
%ADD18O,2.032000X1.727200*%
%ADD19R,1.200000X0.900000*%
%ADD20R,0.900000X1.200000*%
%ADD21R,2.100000X2.100000*%
%ADD22O,2.540000X2.032000*%
%ADD23R,2.032000X2.032000*%
%ADD24O,2.032000X2.032000*%
%ADD25C,0.800000*%
%ADD26C,1.000000*%
%ADD27C,0.250000*%
%ADD28C,1.600000*%
%ADD29C,0.400000*%
G04 APERTURE END LIST*
D10*
D11*
X164714285Y-70678571D02*
X164714285Y-71678571D01*
X165071428Y-70107143D02*
X165428571Y-71178571D01*
X164499999Y-71178571D01*
D12*
X126500000Y-63450000D03*
X126500000Y-61550000D03*
D13*
X198000000Y-77000000D03*
D14*
X200540000Y-77000000D03*
X203080000Y-77000000D03*
D15*
X131000000Y-63950980D03*
X131000000Y-66049020D03*
X133000000Y-63950980D03*
X133000000Y-66049020D03*
X135000000Y-63950980D03*
X135000000Y-66049020D03*
X138000000Y-63950980D03*
X138000000Y-66049020D03*
X140000000Y-63950980D03*
X140000000Y-66049020D03*
X142000000Y-63950980D03*
X142000000Y-66049020D03*
D13*
X160500000Y-57500000D03*
D14*
X163040000Y-57500000D03*
X165580000Y-57500000D03*
X168120000Y-57500000D03*
X170660000Y-57500000D03*
D16*
X161500000Y-74000000D03*
D17*
X144500000Y-88000000D03*
D18*
X144500000Y-90540000D03*
X144500000Y-93080000D03*
D17*
X148000000Y-88000000D03*
D18*
X148000000Y-90540000D03*
X148000000Y-93080000D03*
D17*
X151500000Y-88000000D03*
D18*
X151500000Y-90540000D03*
X151500000Y-93080000D03*
D17*
X155000000Y-88000000D03*
D18*
X155000000Y-90540000D03*
X155000000Y-93080000D03*
D16*
X127000000Y-57000000D03*
X203000000Y-57000000D03*
X203000000Y-93000000D03*
X127000000Y-93000000D03*
D13*
X198000000Y-81000000D03*
D14*
X200540000Y-81000000D03*
X203080000Y-81000000D03*
D19*
X163100000Y-62500000D03*
X160900000Y-62500000D03*
D20*
X193000000Y-67900000D03*
X193000000Y-70100000D03*
X131000000Y-59900000D03*
X131000000Y-62100000D03*
X133000000Y-59900000D03*
X133000000Y-62100000D03*
D19*
X190100000Y-81000000D03*
X187900000Y-81000000D03*
X187900000Y-83000000D03*
X190100000Y-83000000D03*
D20*
X132250000Y-73650000D03*
X132250000Y-75850000D03*
X128500000Y-61400000D03*
X128500000Y-63600000D03*
X195000000Y-70100000D03*
X195000000Y-67900000D03*
X135000000Y-59900000D03*
X135000000Y-62100000D03*
X138000000Y-59900000D03*
X138000000Y-62100000D03*
X140000000Y-59900000D03*
X140000000Y-62100000D03*
X142000000Y-59900000D03*
X142000000Y-62100000D03*
D17*
X187000000Y-62000000D03*
D18*
X187000000Y-59460000D03*
X187000000Y-56920000D03*
D17*
X184000000Y-62000000D03*
D18*
X184000000Y-59460000D03*
X184000000Y-56920000D03*
D17*
X181000000Y-62000000D03*
D18*
X181000000Y-59460000D03*
X181000000Y-56920000D03*
D17*
X178000000Y-62000000D03*
D18*
X178000000Y-59460000D03*
X178000000Y-56920000D03*
D17*
X175000000Y-62000000D03*
D18*
X175000000Y-59460000D03*
X175000000Y-56920000D03*
D17*
X190000000Y-62000000D03*
D18*
X190000000Y-59460000D03*
X190000000Y-56920000D03*
D17*
X177000000Y-88000000D03*
D18*
X177000000Y-90540000D03*
X177000000Y-93080000D03*
D17*
X180000000Y-88000000D03*
D18*
X180000000Y-90540000D03*
X180000000Y-93080000D03*
D17*
X183000000Y-88000000D03*
D18*
X183000000Y-90540000D03*
X183000000Y-93080000D03*
D17*
X186000000Y-88000000D03*
D18*
X186000000Y-90540000D03*
X186000000Y-93080000D03*
D17*
X165000000Y-88000000D03*
D18*
X165000000Y-90540000D03*
X165000000Y-93080000D03*
D17*
X168000000Y-88000000D03*
D18*
X168000000Y-90540000D03*
X168000000Y-93080000D03*
D17*
X171000000Y-88000000D03*
D18*
X171000000Y-90540000D03*
X171000000Y-93080000D03*
D17*
X174000000Y-88000000D03*
D18*
X174000000Y-90540000D03*
X174000000Y-93080000D03*
D17*
X190000000Y-88000000D03*
D18*
X190000000Y-90540000D03*
X190000000Y-93080000D03*
D13*
X194000000Y-62000000D03*
D14*
X196540000Y-62000000D03*
X199080000Y-62000000D03*
D13*
X194000000Y-88000000D03*
D14*
X196540000Y-88000000D03*
X199080000Y-88000000D03*
D17*
X127000000Y-68000000D03*
D18*
X127000000Y-70540000D03*
X127000000Y-73080000D03*
X127000000Y-75620000D03*
X127000000Y-78160000D03*
X127000000Y-80700000D03*
X127000000Y-83240000D03*
D13*
X142000000Y-57000000D03*
D14*
X139460000Y-57000000D03*
X136920000Y-57000000D03*
X134380000Y-57000000D03*
X131840000Y-57000000D03*
D19*
X163100000Y-67750000D03*
X160900000Y-67750000D03*
X163100000Y-66000000D03*
X160900000Y-66000000D03*
X163100000Y-64250000D03*
X160900000Y-64250000D03*
X163100000Y-60750000D03*
X160900000Y-60750000D03*
D21*
X145600000Y-56750000D03*
X156400000Y-56750000D03*
X145600000Y-59550000D03*
X156400000Y-59550000D03*
X156400000Y-63250000D03*
X145600000Y-63250000D03*
D22*
X185000000Y-73500000D03*
X185000000Y-70960000D03*
X185000000Y-76040000D03*
X175000000Y-73500000D03*
X175000000Y-70960000D03*
X175000000Y-76040000D03*
D23*
X200000000Y-73000000D03*
D24*
X197460000Y-73000000D03*
D17*
X138500000Y-85500000D03*
D18*
X138500000Y-88040000D03*
X138500000Y-90580000D03*
X138500000Y-93120000D03*
D17*
X135000000Y-85500000D03*
D18*
X135000000Y-88040000D03*
X135000000Y-90580000D03*
X135000000Y-93120000D03*
D17*
X131500000Y-85500000D03*
D18*
X131500000Y-88040000D03*
X131500000Y-90580000D03*
X131500000Y-93120000D03*
D25*
X145750000Y-76000000D03*
X158750000Y-86250000D03*
X131250000Y-75750000D03*
D26*
X180000000Y-73500000D03*
D25*
X134000000Y-71000000D03*
X147250000Y-66250000D03*
X131500000Y-69000000D03*
X135000000Y-79250000D03*
X140500000Y-70000000D03*
X142000000Y-85500000D03*
X157000000Y-70000000D03*
X126500000Y-60000000D03*
X192000000Y-83000000D03*
X196000000Y-66000000D03*
X155500000Y-82250000D03*
D26*
X180000000Y-71000000D03*
D25*
X133000000Y-70250000D03*
X144000000Y-65000000D03*
X164500000Y-60750000D03*
X134250000Y-80000000D03*
X143500000Y-63750000D03*
X140500000Y-72000000D03*
X146000000Y-85500000D03*
X155000000Y-70000000D03*
X128500000Y-60000000D03*
X136500000Y-60000000D03*
X136250000Y-74500000D03*
X146300000Y-69600000D03*
X147300000Y-69300000D03*
X134750000Y-71750000D03*
X144250000Y-73500000D03*
X145750000Y-74750000D03*
X135500000Y-76000000D03*
X144250000Y-74750000D03*
X168250000Y-81000000D03*
X143750000Y-81250000D03*
X166750000Y-81000000D03*
X146250000Y-81250000D03*
X155500000Y-79750000D03*
X164000000Y-79750000D03*
X150000000Y-79250000D03*
X150000000Y-80250000D03*
X134250000Y-69000000D03*
X151000000Y-70000000D03*
X133000000Y-69000000D03*
X153250000Y-71750000D03*
X186250000Y-81000000D03*
X169000000Y-82500000D03*
X136250000Y-82500000D03*
X138250000Y-76250000D03*
X150250000Y-63250000D03*
X141250000Y-71000000D03*
X150250000Y-67750000D03*
X142250000Y-71250000D03*
X159500000Y-64000000D03*
X152750000Y-62250000D03*
X148500000Y-69250000D03*
X138000000Y-67500000D03*
X139750000Y-67500000D03*
X141500000Y-67500000D03*
X170500000Y-65000000D03*
X168000000Y-74000000D03*
X145000000Y-81250000D03*
X133000000Y-80000000D03*
X149750000Y-73000000D03*
X131750000Y-80000000D03*
X148750000Y-73500000D03*
X131750000Y-78750000D03*
X147750000Y-73000000D03*
X148750000Y-79250000D03*
X165750000Y-81750000D03*
X193000000Y-71500000D03*
X147500000Y-81250000D03*
D27*
X160900000Y-62500000D02*
X157150000Y-62500000D01*
X157150000Y-62500000D02*
X156400000Y-63250000D01*
X132250000Y-75850000D02*
X131350000Y-75850000D01*
X131350000Y-75850000D02*
X131250000Y-75750000D01*
D28*
X132500000Y-93080000D02*
X131080000Y-93080000D01*
X127000000Y-89000000D02*
X127000000Y-83240000D01*
X131080000Y-93080000D02*
X127000000Y-89000000D01*
X136000000Y-93080000D02*
X132500000Y-93080000D01*
X139500000Y-93080000D02*
X136000000Y-93080000D01*
X143000000Y-93080000D02*
X139500000Y-93080000D01*
X149500000Y-93080000D02*
X143000000Y-93080000D01*
X154000000Y-93080000D02*
X149500000Y-93080000D01*
X158500000Y-93080000D02*
X154000000Y-93080000D01*
X165000000Y-93080000D02*
X158500000Y-93080000D01*
D27*
X126500000Y-61550000D02*
X126500000Y-60000000D01*
X190100000Y-83000000D02*
X192000000Y-83000000D01*
X195000000Y-67900000D02*
X195000000Y-67000000D01*
X195000000Y-67000000D02*
X196000000Y-66000000D01*
D28*
X175000000Y-56920000D02*
X190000000Y-56920000D01*
X190000000Y-56920000D02*
X190080000Y-57000000D01*
X190080000Y-57000000D02*
X199000000Y-57000000D01*
X199000000Y-57000000D02*
X203080000Y-61080000D01*
X203080000Y-61080000D02*
X203080000Y-77000000D01*
X165000000Y-93080000D02*
X198920000Y-93080000D01*
X203080000Y-88920000D02*
X203080000Y-84000000D01*
X203080000Y-84000000D02*
X203080000Y-77000000D01*
X198920000Y-93080000D02*
X203080000Y-88920000D01*
D27*
X163100000Y-60750000D02*
X164500000Y-60750000D01*
X163100000Y-62500000D02*
X163100000Y-60750000D01*
X163100000Y-66000000D02*
X163100000Y-67750000D01*
X163100000Y-64250000D02*
X163100000Y-66000000D01*
X163100000Y-62500000D02*
X163100000Y-64250000D01*
X128500000Y-61400000D02*
X128500000Y-60000000D01*
X135000000Y-59900000D02*
X136400000Y-59900000D01*
X136400000Y-59900000D02*
X136500000Y-60000000D01*
X142000000Y-59900000D02*
X140000000Y-59900000D01*
X140000000Y-59900000D02*
X138000000Y-59900000D01*
X138000000Y-59900000D02*
X135000000Y-59900000D01*
X135000000Y-59900000D02*
X133000000Y-59900000D01*
X133000000Y-59900000D02*
X131000000Y-59900000D01*
X136250000Y-74500000D02*
X135500000Y-74500000D01*
X135500000Y-74500000D02*
X134500000Y-73500000D01*
X128500000Y-64500000D02*
X129500000Y-65500000D01*
X129500000Y-65500000D02*
X129500000Y-68500000D01*
X129500000Y-68500000D02*
X134500000Y-73500000D01*
X128500000Y-64500000D02*
X128500000Y-63600000D01*
X128500000Y-63600000D02*
X128900000Y-63600000D01*
X128900000Y-63600000D02*
X129500000Y-63000000D01*
X130500000Y-57000000D02*
X131840000Y-57000000D01*
X129500000Y-58000000D02*
X130500000Y-57000000D01*
X129500000Y-63000000D02*
X129500000Y-58000000D01*
X128500000Y-63600000D02*
X126650000Y-63600000D01*
X126650000Y-63600000D02*
X126500000Y-63450000D01*
X131840000Y-57000000D02*
X131000000Y-57000000D01*
X128900000Y-63600000D02*
X128000000Y-63600000D01*
X131000000Y-62100000D02*
X131000000Y-63950980D01*
X133000000Y-68000000D02*
X134863602Y-68000000D01*
X134863602Y-68000000D02*
X136113602Y-69250000D01*
X146300000Y-69600000D02*
X141350000Y-69600000D01*
X141000000Y-69250000D02*
X136113602Y-69250000D01*
X141350000Y-69600000D02*
X141000000Y-69250000D01*
X131000000Y-67750000D02*
X131000000Y-66049020D01*
X131250000Y-68000000D02*
X131000000Y-67750000D01*
X133000000Y-68000000D02*
X131250000Y-68000000D01*
X133000000Y-62100000D02*
X133000000Y-63950980D01*
X147300000Y-69300000D02*
X146750000Y-68750000D01*
X136250000Y-68750000D02*
X135750000Y-68250000D01*
X141250000Y-68750000D02*
X136250000Y-68750000D01*
X141500000Y-69000000D02*
X141250000Y-68750000D01*
X145750000Y-69000000D02*
X141500000Y-69000000D01*
X146000000Y-68750000D02*
X145750000Y-69000000D01*
X146750000Y-68750000D02*
X146000000Y-68750000D01*
X133000000Y-67250000D02*
X133000000Y-66049020D01*
X133250000Y-67500000D02*
X133000000Y-67250000D01*
X135000000Y-67500000D02*
X133250000Y-67500000D01*
X135750000Y-68250000D02*
X135000000Y-67500000D01*
X142000000Y-73750000D02*
X144000000Y-73750000D01*
X144000000Y-73750000D02*
X144250000Y-73500000D01*
X136000000Y-73750000D02*
X135750000Y-73500000D01*
X142000000Y-73750000D02*
X136000000Y-73750000D01*
X134750000Y-72500000D02*
X134750000Y-71750000D01*
X135750000Y-73500000D02*
X134750000Y-72500000D01*
X141500000Y-74750000D02*
X143000000Y-74750000D01*
X143000000Y-74750000D02*
X143750000Y-75500000D01*
X145750000Y-74750000D02*
X145000000Y-75500000D01*
X145000000Y-75500000D02*
X143750000Y-75500000D01*
X137000000Y-75750000D02*
X136750000Y-76000000D01*
X136750000Y-76000000D02*
X135500000Y-76000000D01*
X138000000Y-74750000D02*
X137000000Y-75750000D01*
X141500000Y-74750000D02*
X138000000Y-74750000D01*
X142250000Y-74250000D02*
X143750000Y-74250000D01*
X143750000Y-74250000D02*
X144250000Y-74750000D01*
X133850000Y-75250000D02*
X132250000Y-73650000D01*
X136750000Y-75250000D02*
X133850000Y-75250000D01*
X137750000Y-74250000D02*
X136750000Y-75250000D01*
X142250000Y-74250000D02*
X137750000Y-74250000D01*
X146000000Y-83500000D02*
X147250000Y-84750000D01*
X168250000Y-82500000D02*
X168250000Y-81000000D01*
X166000000Y-84750000D02*
X168250000Y-82500000D01*
X147250000Y-84750000D02*
X166000000Y-84750000D01*
X146000000Y-83500000D02*
X143750000Y-81250000D01*
X146250000Y-81250000D02*
X146250000Y-82363602D01*
X166750000Y-82613602D02*
X166750000Y-81000000D01*
X165613602Y-83750000D02*
X166750000Y-82613602D01*
X147636398Y-83750000D02*
X165613602Y-83750000D01*
X146250000Y-82363602D02*
X147636398Y-83750000D01*
X155500000Y-79750000D02*
X164000000Y-79750000D01*
D28*
X186000000Y-90540000D02*
X190000000Y-90540000D01*
X183000000Y-90540000D02*
X186000000Y-90540000D01*
X183000000Y-90540000D02*
X180000000Y-90540000D01*
X177000000Y-90540000D02*
X180000000Y-90540000D01*
X177000000Y-90540000D02*
X174000000Y-90540000D01*
X171000000Y-90540000D02*
X174000000Y-90540000D01*
X168000000Y-90540000D02*
X171000000Y-90540000D01*
X165000000Y-90540000D02*
X168000000Y-90540000D01*
X190000000Y-90540000D02*
X195460000Y-90540000D01*
X195460000Y-90540000D02*
X196540000Y-89460000D01*
X196540000Y-89460000D02*
X196540000Y-88000000D01*
X165000000Y-90540000D02*
X190000000Y-90540000D01*
D27*
X148500000Y-78250000D02*
X149000000Y-78250000D01*
X149000000Y-78250000D02*
X150000000Y-79250000D01*
X142750000Y-79250000D02*
X147500000Y-79250000D01*
X147500000Y-79250000D02*
X148500000Y-78250000D01*
X141750000Y-80250000D02*
X141250000Y-80750000D01*
X129250000Y-72790000D02*
X127000000Y-70540000D01*
X129250000Y-79113602D02*
X129250000Y-72790000D01*
X130886398Y-80750000D02*
X129250000Y-79113602D01*
X141250000Y-80750000D02*
X130886398Y-80750000D01*
X142750000Y-79250000D02*
X141750000Y-80250000D01*
X142500000Y-81250000D02*
X142000000Y-81750000D01*
X130500000Y-81750000D02*
X127000000Y-78250000D01*
X135000000Y-81750000D02*
X130500000Y-81750000D01*
X142000000Y-81750000D02*
X135000000Y-81750000D01*
X127000000Y-78250000D02*
X127000000Y-78160000D01*
X150000000Y-80250000D02*
X143500000Y-80250000D01*
X143500000Y-80250000D02*
X142500000Y-81250000D01*
X135000000Y-69000000D02*
X134250000Y-69000000D01*
X138750000Y-72750000D02*
X135000000Y-69000000D01*
X142000000Y-72750000D02*
X138750000Y-72750000D01*
X143250000Y-71500000D02*
X142000000Y-72750000D01*
X149500000Y-71500000D02*
X143250000Y-71500000D01*
X151000000Y-70000000D02*
X149500000Y-71500000D01*
X148000000Y-72000000D02*
X143500000Y-72000000D01*
X143500000Y-72000000D02*
X142250000Y-73250000D01*
X142250000Y-73250000D02*
X138500000Y-73250000D01*
X138500000Y-73250000D02*
X135000000Y-69750000D01*
X135000000Y-69750000D02*
X133750000Y-69750000D01*
X133750000Y-69750000D02*
X133000000Y-69000000D01*
X153000000Y-72000000D02*
X153250000Y-71750000D01*
X148000000Y-72000000D02*
X153000000Y-72000000D01*
X146000000Y-84250000D02*
X147000000Y-85250000D01*
X166250000Y-85250000D02*
X168000000Y-83500000D01*
X147000000Y-85250000D02*
X166250000Y-85250000D01*
X168000000Y-83500000D02*
X169000000Y-82500000D01*
X186250000Y-81000000D02*
X187900000Y-81000000D01*
X146000000Y-84250000D02*
X144250000Y-82500000D01*
X144250000Y-82500000D02*
X141500000Y-82500000D01*
X136250000Y-82500000D02*
X141500000Y-82500000D01*
X187900000Y-81000000D02*
X187900000Y-83000000D01*
X150250000Y-63250000D02*
X150750000Y-63250000D01*
X159000000Y-66500000D02*
X157000000Y-66500000D01*
X160250000Y-67750000D02*
X159000000Y-66500000D01*
X160900000Y-67750000D02*
X160250000Y-67750000D01*
X151000000Y-63250000D02*
X154250000Y-66500000D01*
X154250000Y-66500000D02*
X157000000Y-66500000D01*
X150750000Y-63250000D02*
X151000000Y-63250000D01*
X149500000Y-64250000D02*
X149500000Y-61000000D01*
X141250000Y-71000000D02*
X141250000Y-70500000D01*
X141250000Y-70500000D02*
X141500000Y-70250000D01*
X141500000Y-70250000D02*
X145750000Y-70250000D01*
X145750000Y-70250000D02*
X146000000Y-70500000D01*
X146000000Y-70500000D02*
X147250000Y-70500000D01*
X147250000Y-70500000D02*
X148500000Y-70500000D01*
X148500000Y-70500000D02*
X149500000Y-69500000D01*
X149500000Y-69500000D02*
X149500000Y-64250000D01*
X149500000Y-61000000D02*
X149000000Y-60500000D01*
X145600000Y-59550000D02*
X148050000Y-59550000D01*
X154500000Y-66000000D02*
X160900000Y-66000000D01*
X148050000Y-59550000D02*
X149000000Y-60500000D01*
X149000000Y-60500000D02*
X154500000Y-66000000D01*
X150000000Y-69750000D02*
X149750000Y-70000000D01*
X150000000Y-68000000D02*
X150000000Y-69750000D01*
X150250000Y-67750000D02*
X150000000Y-68000000D01*
X142250000Y-71250000D02*
X142750000Y-70750000D01*
X142750000Y-70750000D02*
X145500000Y-70750000D01*
X145500000Y-70750000D02*
X145750000Y-71000000D01*
X145750000Y-71000000D02*
X148750000Y-71000000D01*
X148750000Y-71000000D02*
X149750000Y-70000000D01*
X159750000Y-64250000D02*
X160900000Y-64250000D01*
X159500000Y-64000000D02*
X159750000Y-64250000D01*
X145600000Y-56750000D02*
X146000000Y-56750000D01*
X146000000Y-56750000D02*
X154750000Y-65500000D01*
X160250000Y-64250000D02*
X160900000Y-64250000D01*
X159000000Y-65500000D02*
X160250000Y-64250000D01*
X154750000Y-65500000D02*
X159000000Y-65500000D01*
X152750000Y-62250000D02*
X155450000Y-59550000D01*
X155450000Y-59550000D02*
X156400000Y-59550000D01*
X160900000Y-60750000D02*
X157600000Y-60750000D01*
X157600000Y-60750000D02*
X156400000Y-59550000D01*
X135000000Y-62100000D02*
X135000000Y-63950980D01*
X147250000Y-68000000D02*
X146000000Y-68000000D01*
X135000000Y-66750000D02*
X135000000Y-66049020D01*
X136500000Y-68250000D02*
X135000000Y-66750000D01*
X141500000Y-68250000D02*
X136500000Y-68250000D01*
X141750000Y-68500000D02*
X141500000Y-68250000D01*
X145500000Y-68500000D02*
X141750000Y-68500000D01*
X146000000Y-68000000D02*
X145500000Y-68500000D01*
X148500000Y-69250000D02*
X147250000Y-68000000D01*
X138000000Y-62100000D02*
X138000000Y-63950980D01*
X138000000Y-67500000D02*
X138000000Y-66049020D01*
X140000000Y-62100000D02*
X140000000Y-63950980D01*
X140000000Y-67250000D02*
X140000000Y-66049020D01*
X139750000Y-67500000D02*
X140000000Y-67250000D01*
X140000000Y-66500000D02*
X140000000Y-66049020D01*
X142000000Y-62100000D02*
X142000000Y-63950980D01*
X142000000Y-67000000D02*
X142000000Y-66049020D01*
X141500000Y-67500000D02*
X142000000Y-67000000D01*
D29*
X168120000Y-58620000D02*
X170500000Y-61000000D01*
X170500000Y-61000000D02*
X170500000Y-65000000D01*
X168120000Y-57500000D02*
X168120000Y-58620000D01*
D28*
X194000000Y-62000000D02*
X194000000Y-63500000D01*
X194000000Y-63500000D02*
X190500000Y-67000000D01*
X190500000Y-67000000D02*
X190500000Y-69500000D01*
X190500000Y-69500000D02*
X189040000Y-70960000D01*
X189040000Y-70960000D02*
X185000000Y-70960000D01*
X194000000Y-62000000D02*
X194000000Y-63000000D01*
X187000000Y-59460000D02*
X190000000Y-59460000D01*
X184000000Y-59460000D02*
X187000000Y-59460000D01*
X181000000Y-59460000D02*
X184000000Y-59460000D01*
X178000000Y-59460000D02*
X181000000Y-59460000D01*
X175000000Y-59460000D02*
X173040000Y-59460000D01*
X194000000Y-86000000D02*
X194000000Y-88000000D01*
X193000000Y-85000000D02*
X194000000Y-86000000D01*
X173500000Y-85000000D02*
X193000000Y-85000000D01*
X172000000Y-83500000D02*
X173500000Y-85000000D01*
X172000000Y-60500000D02*
X172000000Y-83500000D01*
X173040000Y-59460000D02*
X172000000Y-60500000D01*
D27*
X196540000Y-62000000D02*
X196540000Y-63460000D01*
X193000000Y-67000000D02*
X193000000Y-67900000D01*
X196540000Y-63460000D02*
X193000000Y-67000000D01*
D28*
X190000000Y-59460000D02*
X195460000Y-59460000D01*
X195460000Y-59460000D02*
X196540000Y-60540000D01*
X196540000Y-60540000D02*
X196540000Y-62000000D01*
X175000000Y-59460000D02*
X190000000Y-59460000D01*
D27*
X190100000Y-81000000D02*
X194000000Y-81000000D01*
X194000000Y-81000000D02*
X194500000Y-81000000D01*
X194500000Y-81000000D02*
X194000000Y-81000000D01*
D28*
X175000000Y-76040000D02*
X185000000Y-76040000D01*
X185000000Y-76040000D02*
X191960000Y-76040000D01*
X191960000Y-76040000D02*
X195000000Y-73000000D01*
X197000000Y-72540000D02*
X197460000Y-73000000D01*
X199080000Y-62000000D02*
X199080000Y-66000000D01*
X199080000Y-67920000D02*
X197460000Y-69540000D01*
X197460000Y-69540000D02*
X197460000Y-73000000D01*
X199080000Y-66000000D02*
X199080000Y-67920000D01*
X194000000Y-76000000D02*
X194000000Y-81000000D01*
X194000000Y-81000000D02*
X194000000Y-83000000D01*
X199080000Y-85080000D02*
X199080000Y-88000000D01*
X198000000Y-84000000D02*
X199080000Y-85080000D01*
X195000000Y-84000000D02*
X198000000Y-84000000D01*
X194000000Y-83000000D02*
X195000000Y-84000000D01*
X197460000Y-73000000D02*
X195000000Y-73000000D01*
X194000000Y-74000000D02*
X194000000Y-76000000D01*
X195000000Y-73000000D02*
X194000000Y-74000000D01*
D27*
X145000000Y-81250000D02*
X145000000Y-81750000D01*
X167500000Y-82500000D02*
X167500000Y-81500000D01*
X165750000Y-84250000D02*
X167500000Y-82500000D01*
X147500000Y-84250000D02*
X165750000Y-84250000D01*
X145000000Y-81750000D02*
X147500000Y-84250000D01*
X167500000Y-81500000D02*
X167500000Y-80000000D01*
X167500000Y-80000000D02*
X167500000Y-74500000D01*
X167500000Y-74500000D02*
X168000000Y-74000000D01*
X135000000Y-78500000D02*
X134500000Y-78500000D01*
X134500000Y-78500000D02*
X133000000Y-80000000D01*
X149750000Y-76250000D02*
X149250000Y-76750000D01*
X149750000Y-73000000D02*
X149750000Y-76250000D01*
X147500000Y-78500000D02*
X149250000Y-76750000D01*
X135000000Y-78500000D02*
X147500000Y-78500000D01*
X148750000Y-76500000D02*
X147250000Y-78000000D01*
X147250000Y-78000000D02*
X133750000Y-78000000D01*
X133750000Y-78000000D02*
X131750000Y-80000000D01*
X148750000Y-73500000D02*
X148750000Y-76500000D01*
X147750000Y-76750000D02*
X147000000Y-77500000D01*
X147000000Y-77500000D02*
X133000000Y-77500000D01*
X133000000Y-77500000D02*
X131750000Y-78750000D01*
X147750000Y-73000000D02*
X147750000Y-76750000D01*
X143250000Y-79750000D02*
X148250000Y-79750000D01*
X148250000Y-79750000D02*
X148750000Y-79250000D01*
X143250000Y-79750000D02*
X141750000Y-81250000D01*
X141750000Y-81250000D02*
X140250000Y-81250000D01*
X140250000Y-81250000D02*
X130750000Y-81250000D01*
X128750000Y-78500000D02*
X128750000Y-77950000D01*
X130299998Y-80799998D02*
X128750000Y-79250000D01*
X128750000Y-79250000D02*
X128750000Y-78500000D01*
X128750000Y-77950000D02*
X127700000Y-76900000D01*
X127700000Y-76900000D02*
X126100000Y-76900000D01*
X126100000Y-76900000D02*
X125500000Y-77500000D01*
X125500000Y-77500000D02*
X125500000Y-79200000D01*
X125500000Y-79200000D02*
X127000000Y-80700000D01*
X130750000Y-81250000D02*
X130299998Y-80799998D01*
X163750000Y-83250000D02*
X165250000Y-83250000D01*
X165750000Y-82750000D02*
X165750000Y-81750000D01*
X165250000Y-83250000D02*
X165750000Y-82750000D01*
X147500000Y-81250000D02*
X147500000Y-82750000D01*
X148000000Y-83250000D02*
X163750000Y-83250000D01*
X147500000Y-82750000D02*
X148000000Y-83250000D01*
X193000000Y-71500000D02*
X193000000Y-70100000D01*
X193000000Y-70100000D02*
X195000000Y-70100000D01*
D28*
X200540000Y-77000000D02*
X200540000Y-73540000D01*
X200540000Y-73540000D02*
X200000000Y-73000000D01*
X200540000Y-81000000D02*
X200540000Y-77000000D01*
M02*
