{
    "asset" : {
        "generator" : "Khronos glTF Blender I/O v0.9.36",
        "version" : "2.0"
    },
    "scene" : 0,
    "scenes" : [
        {
            "extras" : {
                "glTF2ExportSettings" : {
                    "export_animations" : 0,
                    "export_cameras" : 0,
                    "export_extras" : 1,
                    "export_format" : "GLTF_SEPARATE",
                    "export_lights" : 1,
                    "export_morph" : 0,
                    "export_selected" : 1,
                    "export_skins" : 0,
                    "export_yup" : 0
                }
            },
            "name" : "Scene",
            "nodes" : [
                0
            ]
        }
    ],
    "nodes" : [
        {
            "mesh" : 0,
            "name" : "Bordure"
        }
    ],
    "materials" : [
        {
            "doubleSided" : true,
            "name" : "Bordure",
            "pbrMetallicRoughness" : {
                "baseColorTexture" : {
                    "index" : 0,
                    "texCoord" : 0
                },
                "metallicFactor" : 0,
                "roughnessFactor" : 0.5
            }
        }
    ],
    "meshes" : [
        {
            "name" : "Track.000",
            "primitives" : [
                {
                    "attributes" : {
                        "POSITION" : 0,
                        "NORMAL" : 1,
                        "TEXCOORD_0" : 2
                    },
                    "indices" : 3,
                    "material" : 0
                }
            ]
        }
    ],
    "textures" : [
        {
            "source" : 0
        }
    ],
    "images" : [
        {
            "mimeType" : "image/jpeg",
            "name" : "2create_wood_0019",
            "uri" : "2create_wood_0019.jpg"
        }
    ],
    "accessors" : [
        {
            "bufferView" : 0,
            "componentType" : 5126,
            "count" : 3668,
            "max" : [
                -0.20999908447265625,
                -0.20999997854232788,
                0.1600761115550995
            ],
            "min" : [
                -50.290000915527344,
                -5.289999961853027,
                0.010076112113893032
            ],
            "type" : "VEC3"
        },
        {
            "bufferView" : 1,
            "componentType" : 5126,
            "count" : 3668,
            "type" : "VEC3"
        },
        {
            "bufferView" : 2,
            "componentType" : 5126,
            "count" : 3668,
            "type" : "VEC2"
        },
        {
            "bufferView" : 3,
            "componentType" : 5123,
            "count" : 3684,
            "type" : "SCALAR"
        }
    ],
    "bufferViews" : [
        {
            "buffer" : 0,
            "byteLength" : 44016,
            "byteOffset" : 0
        },
        {
            "buffer" : 0,
            "byteLength" : 44016,
            "byteOffset" : 44016
        },
        {
            "buffer" : 0,
            "byteLength" : 29344,
            "byteOffset" : 88032
        },
        {
            "buffer" : 0,
            "byteLength" : 7368,
            "byteOffset" : 117376
        }
    ],
    "buffers" : [
        {
            "byteLength" : 124744,
            "uri" : "bordure.bin"
        }
    ]
}
